<svg id="svg" version="1.1" xmlns="http://www.w3.org/2000/svg" xmlns:xlink="http://www.w3.org/1999/xlink" width="400" height="400" viewBox="0, 0, 400,400"><g id="svgg"><path id="path0" d="M193.333 7.432 C 193.654 7.494,194.178 7.494,194.498 7.432 C 194.819 7.370,194.557 7.320,193.916 7.320 C 193.275 7.320,193.013 7.370,193.333 7.432 M205.243 7.432 C 205.563 7.494,206.087 7.494,206.408 7.432 C 206.728 7.370,206.466 7.320,205.825 7.320 C 205.184 7.320,204.922 7.370,205.243 7.432 M112.751 28.048 C 53.084 58.739,14.015 115.926,7.656 181.877 C -0.048 261.783,42.034 337.610,114.107 373.689 C 116.277 374.775,118.082 375.664,118.120 375.664 C 118.157 375.664,118.148 374.896,118.100 373.956 C 118.013 372.269,118.019 372.250,118.618 372.438 C 118.951 372.542,116.835 371.404,113.916 369.908 C 59.894 342.236,22.464 291.260,12.558 231.869 C -1.102 149.970,39.740 69.082,113.916 31.124 C 116.835 29.630,118.951 28.494,118.618 28.598 C 118.019 28.785,118.013 28.767,118.100 27.079 C 118.148 26.140,118.129 25.374,118.058 25.378 C 117.987 25.381,115.599 26.583,112.751 28.048 M282.417 27.344 C 282.482 28.591,282.419 28.998,282.158 29.003 C 281.968 29.007,284.375 30.325,287.508 31.933 C 342.777 60.302,381.136 115.582,388.593 177.605 C 389.616 186.117,389.773 189.189,389.773 200.647 C 389.773 271.951,349.961 337.398,287.207 369.256 C 284.336 370.714,282.104 371.979,282.248 372.068 C 282.394 372.158,282.470 372.919,282.420 373.794 L 282.330 375.359 283.236 374.981 C 300.367 367.835,326.199 348.745,341.914 331.619 C 429.075 236.632,401.290 85.177,286.116 27.457 C 281.993 25.391,282.315 25.401,282.417 27.344 M163.563 42.125 C 163.885 42.187,164.351 42.184,164.598 42.120 C 164.846 42.055,164.583 42.004,164.013 42.007 C 163.443 42.010,163.241 42.063,163.563 42.125 M189.968 42.124 C 190.288 42.186,190.812 42.186,191.133 42.124 C 191.453 42.063,191.191 42.012,190.550 42.012 C 189.909 42.012,189.647 42.063,189.968 42.124 M166.548 49.642 C 167.515 49.692,169.030 49.692,169.914 49.641 C 170.798 49.591,170.006 49.550,168.155 49.550 C 166.304 49.551,165.581 49.592,166.548 49.642 M185.059 49.642 C 185.954 49.692,187.352 49.692,188.165 49.641 C 188.979 49.590,188.246 49.548,186.537 49.549 C 184.828 49.549,184.163 49.591,185.059 49.642 M224.419 49.644 C 228.025 49.684,233.850 49.684,237.364 49.644 C 240.879 49.603,237.929 49.570,230.809 49.570 C 223.689 49.570,220.814 49.603,224.419 49.644 M190.127 52.168 C 190.128 53.592,190.171 54.142,190.224 53.389 C 190.276 52.637,190.275 51.472,190.222 50.800 C 190.169 50.129,190.126 50.744,190.127 52.168 M339.029 56.440 C 339.585 57.010,340.099 57.476,340.170 57.476 C 340.241 57.476,339.844 57.010,339.288 56.440 C 338.732 55.871,338.219 55.405,338.147 55.405 C 338.076 55.405,338.473 55.871,339.029 56.440 M343.430 60.841 C 343.987 61.411,344.500 61.877,344.571 61.877 C 344.642 61.877,344.245 61.411,343.689 60.841 C 343.133 60.272,342.620 59.806,342.549 59.806 C 342.477 59.806,342.874 60.272,343.430 60.841 M72.350 68.414 L 71.327 69.515 72.427 68.491 C 73.450 67.539,73.646 67.314,73.451 67.314 C 73.408 67.314,72.913 67.809,72.350 68.414 M68.077 72.686 L 67.184 73.657 68.155 72.765 C 68.689 72.274,69.126 71.837,69.126 71.794 C 69.126 71.596,68.907 71.782,68.077 72.686 M121.683 83.754 L 121.683 87.508 138.252 87.508 L 154.822 87.508 154.822 83.754 L 154.822 80.000 138.252 80.000 L 121.683 80.000 121.683 83.754 M253.463 86.184 L 253.463 90.025 254.713 90.173 C 264.005 91.273,278.223 97.227,285.186 102.933 C 285.781 103.420,286.342 103.819,286.434 103.819 C 286.527 103.819,286.602 101.790,286.602 99.310 L 286.602 94.801 283.643 92.978 C 274.974 87.639,266.166 84.489,254.304 82.485 L 253.463 82.343 253.463 86.184 M303.948 95.663 C 304.722 96.447,305.413 97.087,305.484 97.087 C 305.555 97.087,304.981 96.447,304.207 95.663 C 303.434 94.880,302.743 94.239,302.671 94.239 C 302.600 94.239,303.175 94.880,303.948 95.663 M121.722 200.259 C 121.728 266.751,121.780 277.487,122.089 276.375 C 122.956 273.252,123.012 267.829,122.913 197.540 C 122.814 127.784,122.784 125.508,121.951 123.435 C 121.809 123.080,121.718 153.461,121.722 200.259 M235.469 124.790 C 236.025 125.359,236.539 125.825,236.610 125.825 C 236.681 125.825,236.284 125.359,235.728 124.790 C 235.172 124.220,234.659 123.754,234.587 123.754 C 234.516 123.754,234.913 124.220,235.469 124.790 M168.196 125.167 C 164.758 126.393,164.930 124.961,164.930 152.233 C 164.930 178.758,164.794 177.020,167.009 178.625 L 168.104 179.417 176.738 179.417 L 185.372 179.417 185.372 177.875 L 185.372 176.332 177.196 176.256 C 169.448 176.185,169.000 176.155,168.652 175.679 C 167.973 174.749,168.118 129.358,168.803 128.673 C 169.298 128.178,169.666 128.155,177.346 128.155 L 185.372 128.155 185.372 126.611 L 185.372 125.066 188.155 124.983 C 189.686 124.937,186.045 124.880,180.065 124.856 C 171.424 124.821,168.987 124.885,168.196 125.167 M210.680 124.972 C 211.000 125.034,211.524 125.034,211.845 124.972 C 212.165 124.911,211.903 124.860,211.262 124.860 C 210.621 124.860,210.359 124.911,210.680 124.972 M215.405 126.849 C 215.405 128.162,215.331 128.417,214.951 128.428 C 214.702 128.436,215.314 128.657,216.311 128.919 C 223.669 130.855,229.513 136.641,231.621 144.078 C 232.372 146.724,232.438 156.540,231.727 159.619 C 229.907 167.492,224.196 173.348,216.181 175.557 C 215.256 175.812,214.702 176.028,214.951 176.036 C 215.331 176.049,215.405 176.304,215.405 177.605 C 215.405 178.460,215.494 179.159,215.604 179.159 C 221.142 179.159,229.973 172.285,233.256 165.418 C 236.581 158.464,236.506 145.466,233.103 138.696 C 229.697 131.919,223.057 126.665,216.375 125.459 L 215.405 125.284 215.405 126.849 M196.440 176.245 C 198.754 176.288,202.540 176.288,204.854 176.245 C 207.168 176.203,205.275 176.167,200.647 176.167 C 196.019 176.167,194.126 176.203,196.440 176.245 M284.401 179.251 C 280.697 182.129,276.693 184.415,268.997 188.045 C 265.935 189.489,257.748 193.991,257.129 194.570 C 257.081 194.616,259.819 195.541,263.213 196.627 C 275.483 200.552,280.236 202.227,283.396 203.739 L 286.615 205.278 286.544 201.133 L 286.472 196.989 284.401 196.066 C 283.262 195.559,280.948 194.652,279.258 194.052 L 276.185 192.960 278.481 191.731 C 279.744 191.055,282.087 189.668,283.689 188.650 L 286.602 186.797 286.602 182.201 C 286.602 179.673,286.573 177.613,286.537 177.624 C 286.502 177.634,285.540 178.366,284.401 179.251 M196.440 179.611 C 198.754 179.654,202.540 179.654,204.854 179.611 C 207.168 179.568,205.275 179.533,200.647 179.533 C 196.019 179.533,194.126 179.568,196.440 179.611 M311.068 201.683 C 311.913 202.537,312.663 203.236,312.735 203.236 C 312.806 203.236,312.172 202.537,311.327 201.683 C 310.481 200.828,309.731 200.129,309.660 200.129 C 309.589 200.129,310.223 200.828,311.068 201.683 M168.546 214.968 C 167.317 215.360,165.540 217.192,165.199 218.420 C 164.817 219.796,164.812 276.238,165.194 277.612 C 166.168 281.122,167.244 281.419,178.900 281.383 C 184.239 281.367,188.346 281.303,188.026 281.241 C 187.508 281.142,187.443 280.975,187.443 279.741 C 187.443 278.508,187.508 278.341,188.026 278.241 C 188.346 278.179,184.322 278.113,179.082 278.094 L 169.556 278.058 168.920 277.423 L 168.285 276.787 168.285 248.066 C 168.285 220.179,168.299 219.328,168.779 218.734 L 169.274 218.123 178.941 217.986 C 184.258 217.910,188.346 217.823,188.026 217.792 C 187.500 217.740,187.443 217.597,187.443 216.329 C 187.443 215.077,187.507 214.910,188.026 214.811 C 188.346 214.749,184.298 214.694,179.029 214.690 C 172.694 214.684,169.144 214.778,168.546 214.968 M220.587 217.152 L 220.592 218.900 222.527 219.512 C 229.866 221.835,236.123 228.538,238.632 236.764 L 239.343 239.094 239.348 247.896 C 239.353 256.308,239.326 256.797,238.752 258.900 C 236.477 267.233,230.252 273.981,222.395 276.631 L 220.712 277.198 220.635 278.923 C 220.547 280.908,220.422 280.854,223.077 279.967 C 232.241 276.906,239.428 269.247,241.997 259.806 L 242.702 257.217 242.702 248.026 L 242.702 238.835 241.998 236.252 C 239.383 226.651,231.875 218.829,222.494 215.932 C 221.555 215.642,220.741 215.405,220.685 215.405 C 220.629 215.405,220.585 216.191,220.587 217.152 M284.742 298.374 C 277.578 303.180,266.604 307.317,255.858 309.264 L 253.463 309.698 253.463 313.425 C 253.463 317.822,252.885 317.469,258.304 316.388 C 268.260 314.402,275.995 311.703,283.674 307.535 L 286.602 305.946 286.602 301.581 C 286.602 299.181,286.572 297.217,286.534 297.217 C 286.497 297.217,285.691 297.738,284.742 298.374 M309.506 304.790 L 307.961 306.408 309.579 304.862 C 311.082 303.427,311.316 303.172,311.125 303.172 C 311.085 303.172,310.356 303.900,309.506 304.790 M210.680 312.675 C 211.000 312.736,211.524 312.736,211.845 312.675 C 212.165 312.613,211.903 312.562,211.262 312.562 C 210.621 312.562,210.359 312.613,210.680 312.675 M121.683 316.375 L 121.683 320.000 131.327 320.000 C 136.631 320.001,144.583 320.048,148.997 320.106 C 153.411 320.164,156.528 320.157,155.922 320.091 L 154.822 319.970 154.822 316.361 L 154.822 312.751 138.252 312.751 L 121.683 312.751 121.683 316.375 M200.727 320.194 C 202.551 320.238,205.463 320.238,207.200 320.193 C 208.936 320.149,207.443 320.112,203.883 320.112 C 200.324 320.112,198.903 320.149,200.727 320.194 M70.291 329.579 C 71.567 330.861,72.669 331.909,72.740 331.909 C 72.811 331.909,71.826 330.861,70.550 329.579 C 69.275 328.298,68.173 327.249,68.101 327.249 C 68.030 327.249,69.016 328.298,70.291 329.579 M341.225 341.424 L 338.770 343.948 341.294 341.494 C 343.639 339.214,343.937 338.900,343.749 338.900 C 343.711 338.900,342.575 340.036,341.225 341.424 M197.390 352.880 C 197.390 355.657,197.428 356.793,197.475 355.405 C 197.521 354.016,197.521 351.744,197.475 350.356 C 197.428 348.968,197.390 350.104,197.390 352.880 M156.999 353.657 C 156.999 356.006,157.038 356.968,157.086 355.793 C 157.134 354.618,157.134 352.696,157.086 351.521 C 157.038 350.346,156.999 351.307,156.999 353.657 M170.680 350.485 C 174.204 350.526,179.971 350.526,183.495 350.485 C 187.019 350.445,184.136 350.411,177.087 350.411 C 170.039 350.411,167.155 350.445,170.680 350.485 M224.419 350.485 C 228.025 350.526,233.850 350.526,237.364 350.485 C 240.879 350.445,237.929 350.411,230.809 350.411 C 223.689 350.411,220.814 350.445,224.419 350.485 M193.333 393.710 C 193.654 393.772,194.178 393.772,194.498 393.710 C 194.819 393.649,194.557 393.598,193.916 393.598 C 193.275 393.598,193.013 393.649,193.333 393.710 M205.243 393.710 C 205.563 393.772,206.087 393.772,206.408 393.710 C 206.728 393.649,206.466 393.598,205.825 393.598 C 205.184 393.598,204.922 393.649,205.243 393.710 " stroke="none" fill="#b38953" fill-rule="evenodd"/><path id="path1" d="M188.867 0.433 C 81.976 7.140,0.215 93.627,0.207 200.000 C 0.198 310.691,89.126 399.594,199.871 399.610 C 326.462 399.628,420.579 284.738,395.838 160.388 C 376.578 63.589,286.900 -5.717,188.867 0.433 M216.699 7.879 C 317.630 17.410,393.139 99.852,393.139 200.518 C 393.139 318.618,289.029 408.641,171.909 391.815 C 89.959 380.042,23.742 315.783,9.597 234.304 C -10.231 120.087,72.228 15.318,188.091 7.517 C 193.239 7.171,211.668 7.403,216.699 7.879 M189.515 10.903 C 79.649 17.102,-1.987 114.829,11.547 223.948 C 24.615 329.317,121.899 403.610,226.985 388.470 C 328.333 373.869,399.991 281.357,388.714 179.676 C 386.055 155.701,378.873 132.386,367.703 111.462 C 332.760 46.008,263.188 6.746,189.515 10.903 M208.441 16.835 C 309.104 21.887,386.495 105.777,383.148 206.214 C 379.617 312.197,286.787 393.189,181.230 382.384 C 75.889 371.601,1.414 273.617,19.188 169.191 C 34.697 78.071,116.495 12.220,208.441 16.835 M159.703 32.511 C 153.097 33.697,148.065 38.162,145.863 44.790 C 145.442 46.058,145.375 47.516,145.252 58.123 L 145.113 70.032 117.929 70.173 C 97.952 70.277,90.456 70.396,89.659 70.624 C 83.113 72.495,78.483 77.154,76.891 83.472 C 76.205 86.197,76.098 117.076,76.764 120.259 C 77.799 125.208,81.290 129.652,86.010 132.029 C 89.012 133.541,90.853 133.843,97.519 133.917 C 100.676 133.952,103.355 134.078,103.474 134.196 C 103.784 134.507,103.878 269.029,103.568 269.515 C 103.363 269.836,102.189 269.930,96.773 270.059 C 85.197 270.336,79.966 273.533,77.115 282.071 L 76.510 283.883 76.432 301.076 C 76.344 320.504,76.348 320.559,78.227 324.401 C 80.184 328.406,84.221 331.770,88.673 333.107 C 90.114 333.540,92.221 333.584,117.670 333.712 L 145.113 333.851 145.180 352.686 L 145.246 371.521 204.015 371.521 L 262.783 371.521 262.784 357.994 C 262.784 350.553,262.861 341.070,262.954 336.920 L 263.124 329.374 266.441 328.565 C 307.072 318.658,333.833 285.483,331.414 248.018 C 330.187 229.006,323.773 214.484,310.950 201.676 C 307.973 198.703,301.859 193.673,300.665 193.215 C 300.429 193.124,301.385 191.973,303.495 189.808 C 326.372 166.332,329.602 131.591,311.408 104.688 C 301.940 90.689,284.851 79.404,265.978 74.687 L 263.088 73.965 262.979 60.478 C 262.875 47.690,262.841 46.886,262.316 44.971 C 260.638 38.850,256.094 34.377,249.838 32.687 C 247.294 32.000,214.647 31.995,211.979 32.681 C 209.589 33.296,207.280 34.393,205.461 35.777 L 203.932 36.941 202.355 35.750 C 200.619 34.439,198.489 33.404,196.111 32.715 C 193.996 32.103,162.948 31.928,159.703 32.511 M194.329 42.638 C 197.800 44.496,197.799 44.490,197.799 63.866 L 197.799 80.000 203.998 80.000 L 210.196 80.000 210.276 63.236 C 210.388 39.692,208.133 42.103,230.138 41.997 C 247.252 41.914,247.717 41.948,249.331 43.406 C 251.324 45.207,251.262 44.534,251.262 64.353 L 251.262 81.974 253.592 82.290 C 285.403 86.595,307.712 107.006,311.080 134.887 C 313.844 157.758,300.160 181.432,277.994 192.131 C 276.369 192.915,276.297 192.842,280.017 194.160 C 299.471 201.049,313.560 216.271,318.011 235.210 C 327.288 274.683,300.157 309.793,254.672 317.175 L 251.091 317.756 251.177 327.487 C 251.224 332.838,251.233 341.906,251.197 347.638 L 251.133 358.058 230.954 358.058 L 210.776 358.058 210.566 356.828 C 210.451 356.152,210.356 347.647,210.356 337.929 L 210.356 320.259 204.120 320.259 L 197.883 320.259 197.712 329.622 C 197.618 334.771,197.540 343.276,197.540 348.521 L 197.540 358.058 177.217 358.058 L 156.893 358.058 156.893 339.165 L 156.893 320.272 124.595 320.201 L 92.298 320.129 91.004 319.482 C 88.067 318.013,88.026 317.747,88.026 300.065 C 88.026 278.876,87.307 280.142,99.515 279.825 C 113.875 279.451,114.628 279.019,115.234 270.809 C 115.631 265.422,115.391 128.499,114.980 126.472 C 113.955 121.413,112.164 120.691,99.935 120.410 C 87.305 120.120,88.155 121.570,88.155 100.324 L 88.155 84.531 88.803 83.238 C 89.534 81.777,91.004 80.613,92.576 80.248 C 93.157 80.113,107.156 80.010,125.243 80.006 L 156.893 80.000 156.896 63.366 L 156.898 46.731 157.515 45.407 C 158.212 43.910,159.458 42.835,161.093 42.318 C 163.254 41.636,192.990 41.922,194.329 42.638 M164.606 66.602 C 164.524 84.961,164.580 84.279,163.026 85.921 C 161.305 87.739,163.910 87.620,127.959 87.531 L 95.529 87.451 95.596 100.101 L 95.663 112.751 100.712 112.797 C 114.833 112.927,119.991 115.604,122.252 123.973 C 123.570 128.850,123.647 269.979,122.336 276.117 C 120.576 284.350,115.884 286.989,102.457 287.296 L 95.529 287.454 95.596 300.006 L 95.663 312.558 127.553 312.509 C 149.299 312.476,159.765 312.548,160.459 312.735 C 162.058 313.166,163.178 314.060,163.883 315.470 L 164.531 316.764 164.606 333.528 L 164.681 350.291 177.227 350.291 L 189.773 350.291 189.802 342.718 C 189.818 338.553,189.906 330.826,189.997 325.547 L 190.162 315.948 190.874 314.872 C 192.341 312.657,192.476 312.632,203.327 312.545 C 214.095 312.458,214.571 312.521,216.250 314.244 C 218.179 316.224,218.098 315.329,218.017 333.786 L 217.944 350.291 230.655 350.291 L 243.366 350.291 243.430 344.013 C 243.466 340.560,243.495 332.667,243.495 326.472 C 243.495 313.971,243.475 314.133,245.256 312.275 C 246.484 310.994,247.727 310.463,250.543 310.016 C 271.466 306.697,284.050 300.852,295.922 288.941 C 322.217 262.560,316.143 219.772,283.883 204.141 C 279.778 202.151,277.800 201.433,266.408 197.796 C 261.495 196.228,257.307 194.883,257.101 194.807 C 256.550 194.605,262.924 190.893,268.220 188.333 C 279.221 183.016,283.357 180.407,288.485 175.548 C 298.987 165.596,304.943 150.644,303.702 137.346 C 301.321 111.818,282.098 94.235,251.771 89.846 C 243.274 88.616,243.506 89.270,243.603 66.861 L 243.676 49.709 230.835 49.709 L 217.994 49.709 217.992 66.472 C 217.990 84.988,218.022 84.608,216.344 86.155 C 214.713 87.658,213.885 87.767,204.047 87.767 C 194.173 87.767,193.440 87.653,191.708 85.854 C 190.002 84.082,190.032 84.441,190.032 66.184 L 190.032 49.709 177.357 49.709 L 164.681 49.709 164.606 66.602 M231.862 75.469 L 231.879 87.638 232.580 89.927 C 235.044 97.979,240.209 101.866,250.356 103.305 C 268.472 105.873,282.398 114.478,288.269 126.731 C 295.194 141.184,292.433 156.812,280.926 168.300 C 276.490 172.728,273.203 174.813,263.263 179.502 C 260.057 181.015,228.608 199.271,228.608 199.620 C 228.608 199.701,235.977 202.140,244.984 205.039 C 278.041 215.682,278.715 215.933,283.985 219.542 C 301.484 231.527,305.880 256.928,293.626 275.253 C 284.678 288.635,270.236 296.981,250.923 299.931 C 242.252 301.255,238.267 303.378,234.841 308.500 C 232.016 312.724,231.609 315.489,231.854 328.816 C 232.069 340.499,232.074 340.453,230.636 340.453 L 229.598 340.453 229.676 329.256 C 229.745 319.283,229.704 317.860,229.300 316.246 C 227.708 309.883,223.019 305.052,216.695 303.259 C 214.207 302.554,193.657 302.538,191.068 303.239 C 185.435 304.764,181.139 308.743,179.257 314.177 L 178.541 316.246 178.357 326.861 C 178.255 332.699,178.161 338.146,178.148 338.964 L 178.123 340.453 177.238 340.453 L 176.352 340.453 176.248 328.867 C 176.151 318.055,176.108 317.149,175.597 315.300 C 173.933 309.274,169.720 305.080,163.495 303.254 C 162.064 302.834,159.798 302.791,134.693 302.716 L 107.443 302.634 107.443 301.753 C 107.443 300.911,107.491 300.868,108.544 300.742 C 113.050 300.206,114.457 299.966,116.394 299.405 C 128.141 296.001,133.826 287.434,134.641 271.907 C 135.028 264.539,134.819 131.829,134.415 127.767 C 133.074 114.316,124.104 105.004,111.068 103.529 C 107.286 103.101,107.443 103.161,107.443 102.139 L 107.443 101.246 134.693 101.168 C 159.919 101.096,162.057 101.056,163.490 100.630 C 168.552 99.125,172.272 96.098,174.371 91.776 C 176.063 88.291,176.114 87.839,176.241 75.016 L 176.356 63.430 177.369 63.430 L 178.382 63.430 178.382 74.577 C 178.382 87.186,178.464 87.937,180.235 91.569 C 182.584 96.387,187.146 99.827,192.563 100.863 C 195.403 101.406,212.637 101.383,215.824 100.832 C 221.877 99.784,226.654 95.728,228.821 89.795 L 229.515 87.896 229.586 75.858 C 229.666 62.206,229.574 63.113,230.872 63.220 L 231.845 63.301 231.862 75.469 M168.155 114.848 C 167.871 114.908,166.997 115.086,166.214 115.244 C 161.276 116.241,156.659 120.795,155.334 125.977 C 154.636 128.708,154.536 175.196,155.223 178.109 C 156.453 183.325,160.472 187.513,165.839 189.169 C 168.467 189.980,213.896 189.893,217.605 189.069 C 231.825 185.912,241.904 176.002,245.060 162.071 C 245.714 159.189,245.896 147.762,245.344 144.284 C 243.012 129.590,232.099 118.280,217.366 115.290 C 215.388 114.888,169.913 114.480,168.155 114.848 M216.996 125.490 C 225.790 127.973,232.113 134.045,234.734 142.524 C 235.764 145.856,235.856 158.017,234.877 161.397 C 232.339 170.160,225.738 176.619,216.947 178.943 C 214.773 179.518,214.594 179.522,191.871 179.611 L 168.986 179.700 167.664 179.048 C 166.869 178.655,166.085 178.014,165.696 177.437 L 165.049 176.478 164.980 152.536 C 164.903 125.702,164.803 127.198,166.764 125.802 C 168.115 124.840,168.582 124.823,191.974 124.877 C 214.713 124.931,215.042 124.939,216.996 125.490 M168.934 128.778 L 168.285 129.426 168.285 152.164 C 168.285 172.324,168.330 174.966,168.688 175.476 L 169.091 176.052 191.406 176.050 C 217.926 176.048,217.510 176.096,222.935 172.412 C 229.458 167.982,232.233 161.960,232.233 152.233 C 232.233 141.314,228.498 134.545,220.230 130.482 C 215.611 128.212,216.901 128.315,191.781 128.216 L 169.582 128.129 168.934 128.778 M212.844 138.517 C 219.275 139.736,222.136 143.959,222.136 152.229 C 222.136 159.502,220.432 162.839,215.587 165.058 C 213.185 166.157,211.802 166.230,194.693 166.155 L 178.511 166.084 178.444 152.492 C 178.407 145.016,178.432 138.754,178.501 138.576 C 178.660 138.160,210.669 138.104,212.844 138.517 M166.990 204.935 C 161.293 206.163,156.497 210.982,155.219 216.763 C 154.576 219.672,154.745 278.599,155.401 280.461 C 157.351 285.989,161.775 290.063,167.017 291.156 C 170.432 291.868,218.604 291.549,221.929 290.793 C 237.623 287.221,248.883 275.795,252.336 259.935 C 253.121 256.332,253.046 239.376,252.230 235.679 C 248.593 219.213,235.554 207.102,219.107 204.913 C 215.054 204.374,169.506 204.392,166.990 204.935 M218.749 215.025 C 230.616 216.950,239.852 225.861,242.353 237.799 C 243.104 241.384,243.078 254.713,242.312 258.469 C 240.321 268.240,233.242 276.393,223.826 279.758 C 219.065 281.460,219.458 281.439,192.571 281.363 L 168.329 281.294 167.227 280.518 C 166.620 280.091,165.853 279.228,165.521 278.600 L 164.919 277.459 164.919 248.144 L 164.919 218.829 165.640 217.449 C 166.224 216.332,166.624 215.932,167.741 215.349 L 169.121 214.628 192.716 214.629 C 212.635 214.630,216.690 214.692,218.749 215.025 M169.053 218.739 L 168.285 219.507 168.285 248.026 L 168.285 276.545 169.050 277.310 L 169.816 278.076 193.840 277.993 C 217.795 277.910,217.870 277.908,220.053 277.328 C 230.201 274.631,237.650 266.385,239.236 256.094 C 239.767 252.654,239.415 239.792,238.722 237.282 C 236.203 228.155,229.338 221.350,220.096 218.818 L 217.605 218.135 193.713 218.053 L 169.821 217.971 169.053 218.739 M217.027 228.471 C 223.010 229.739,227.642 234.249,229.008 240.136 C 229.764 243.398,229.455 255.099,228.546 257.599 C 227.157 261.422,224.311 264.617,220.719 266.385 C 217.521 267.959,217.614 267.953,197.087 267.957 L 178.382 267.961 178.382 248.026 L 178.382 228.091 196.828 228.095 C 211.847 228.099,215.601 228.169,217.027 228.471 " stroke="none" fill="#040404" fill-rule="evenodd"/><path id="path2" d="M197.735 0.193 C 198.909 0.241,200.832 0.241,202.006 0.193 C 203.181 0.145,202.220 0.105,199.871 0.105 C 197.521 0.105,196.560 0.145,197.735 0.193 M195.146 16.757 C 195.608 16.814,196.366 16.814,196.828 16.757 C 197.291 16.699,196.913 16.652,195.987 16.652 C 195.061 16.652,194.683 16.699,195.146 16.757 M202.913 16.757 C 203.375 16.814,204.133 16.814,204.595 16.757 C 205.058 16.699,204.680 16.652,203.754 16.652 C 202.828 16.652,202.450 16.699,202.913 16.757 M176.512 32.293 C 177.121 32.348,178.053 32.347,178.583 32.292 C 179.113 32.236,178.615 32.191,177.476 32.192 C 176.337 32.193,175.903 32.239,176.512 32.293 M165.884 42.129 C 166.344 42.186,167.159 42.187,167.696 42.131 C 168.234 42.075,167.858 42.028,166.861 42.027 C 165.864 42.026,165.425 42.071,165.884 42.129 M174.175 42.135 C 175.919 42.180,178.773 42.180,180.518 42.135 C 182.262 42.090,180.835 42.054,177.346 42.054 C 173.858 42.054,172.430 42.090,174.175 42.135 M241.758 42.134 C 242.653 42.184,244.051 42.184,244.865 42.133 C 245.678 42.082,244.945 42.040,243.236 42.041 C 241.528 42.041,240.862 42.083,241.758 42.134 M251.254 63.042 C 251.254 71.301,251.287 74.717,251.327 70.633 C 251.367 66.550,251.367 59.792,251.327 55.617 C 251.287 51.442,251.254 54.783,251.254 63.042 M210.348 64.207 C 210.348 72.964,210.381 76.547,210.421 72.168 C 210.460 67.790,210.460 60.625,210.421 56.246 C 210.381 51.867,210.348 55.450,210.348 64.207 M145.102 59.417 C 145.102 65.256,145.136 67.681,145.178 64.807 C 145.219 61.933,145.219 57.156,145.178 54.192 C 145.136 51.228,145.102 53.579,145.102 59.417 M164.520 49.773 C 164.452 49.951,164.427 57.379,164.464 66.278 L 164.531 82.460 164.660 65.955 C 164.731 56.877,164.757 49.450,164.717 49.450 C 164.677 49.450,164.588 49.595,164.520 49.773 M197.660 67.314 C 197.660 74.362,197.694 77.246,197.734 73.722 C 197.775 70.197,197.775 64.430,197.734 60.906 C 197.694 57.382,197.660 60.265,197.660 67.314 M58.507 58.706 L 55.793 61.489 58.576 58.775 C 61.161 56.254,61.477 55.922,61.290 55.922 C 61.252 55.922,59.999 57.175,58.507 58.706 M63.167 63.883 L 60.453 66.667 63.236 63.953 C 64.767 62.460,66.019 61.208,66.019 61.170 C 66.019 60.983,65.688 61.298,63.167 63.883 M330.615 62.735 C 330.615 62.779,330.994 63.158,331.456 63.576 L 332.298 64.337 331.537 63.495 C 330.829 62.711,330.615 62.535,330.615 62.735 M229.768 63.480 C 229.697 63.666,229.670 68.596,229.709 74.434 L 229.779 85.049 229.841 74.239 L 229.903 63.430 230.805 63.430 L 231.708 63.430 231.782 71.521 L 231.856 79.612 231.850 71.456 L 231.845 63.301 230.872 63.220 C 230.246 63.169,229.852 63.261,229.768 63.480 M178.241 73.916 C 178.241 79.754,178.275 82.179,178.317 79.305 C 178.358 76.431,178.358 71.655,178.317 68.690 C 178.275 65.726,178.241 68.078,178.241 73.916 M325.955 66.877 C 325.955 66.922,326.333 67.300,326.796 67.719 L 327.638 68.479 326.877 67.638 C 326.168 66.853,325.955 66.677,325.955 66.877 M336.311 68.431 C 336.311 68.475,336.689 68.854,337.152 69.272 L 337.994 70.032 337.233 69.191 C 336.524 68.407,336.311 68.231,336.311 68.431 M331.392 72.314 C 331.392 72.359,331.770 72.737,332.233 73.155 L 333.074 73.916 332.314 73.074 C 331.605 72.290,331.392 72.114,331.392 72.314 M243.461 80.518 C 243.461 82.013,243.504 82.625,243.557 81.877 C 243.609 81.129,243.609 79.906,243.557 79.159 C 243.504 78.411,243.461 79.023,243.461 80.518 M92.459 80.259 C 91.013 80.601,89.510 81.825,88.803 83.238 L 88.155 84.531 88.155 100.324 C 88.155 115.997,88.160 116.124,88.713 117.152 C 90.167 119.855,91.194 120.232,97.411 120.343 L 102.524 120.435 102.524 116.658 C 102.524 113.250,102.480 112.876,102.071 112.834 C 101.822 112.808,100.278 112.779,98.641 112.769 L 95.663 112.751 95.596 100.129 L 95.529 87.508 99.027 87.508 L 102.524 87.508 102.524 83.754 L 102.524 80.000 97.929 80.027 C 95.401 80.041,92.940 80.146,92.459 80.259 M76.220 90.744 C 76.220 92.880,76.261 93.720,76.309 92.610 C 76.358 91.499,76.358 89.752,76.309 88.726 C 76.259 87.700,76.220 88.608,76.220 90.744 M151.392 87.701 C 152.851 87.747,155.239 87.747,156.699 87.701 C 158.159 87.655,156.964 87.617,154.045 87.617 C 151.126 87.617,149.932 87.655,151.392 87.701 M202.022 87.702 C 204.131 87.745,207.510 87.745,209.530 87.702 C 211.551 87.658,209.825 87.622,205.696 87.622 C 201.566 87.622,199.913 87.658,202.022 87.702 M296.429 103.107 C 297.502 104.250,297.735 104.455,297.735 104.261 C 297.735 104.219,297.181 103.666,296.505 103.031 L 295.275 101.877 296.429 103.107 M290.216 107.508 C 291.289 108.651,291.521 108.857,291.521 108.662 C 291.521 108.621,290.968 108.067,290.291 107.433 L 289.061 106.278 290.216 107.508 M76.220 113.269 C 76.220 115.405,76.261 116.244,76.309 115.134 C 76.358 114.024,76.358 112.276,76.309 111.250 C 76.259 110.224,76.220 111.133,76.220 113.269 M105.566 113.063 C 105.887 113.125,106.411 113.125,106.731 113.063 C 107.052 113.001,106.790 112.951,106.149 112.951 C 105.508 112.951,105.246 113.001,105.566 113.063 M305.801 140.583 L 305.803 164.531 306.717 162.589 C 312.930 149.387,312.874 131.951,306.576 118.317 L 305.799 116.634 305.801 140.583 M159.078 119.159 L 158.317 120.000 159.159 119.240 C 159.621 118.821,160.000 118.443,160.000 118.398 C 160.000 118.198,159.786 118.374,159.078 119.159 M105.569 120.571 C 105.891 120.633,106.357 120.631,106.605 120.566 C 106.852 120.501,106.589 120.451,106.019 120.454 C 105.450 120.457,105.247 120.510,105.569 120.571 M122.779 130.227 C 122.779 130.725,122.832 130.929,122.897 130.680 C 122.962 130.430,122.962 130.023,122.897 129.773 C 122.832 129.524,122.779 129.728,122.779 130.227 M115.288 131.262 C 115.288 132.045,115.336 132.366,115.396 131.974 C 115.455 131.583,115.455 130.942,115.396 130.550 C 115.336 130.159,115.288 130.479,115.288 131.262 M93.142 134.034 C 93.464 134.096,93.930 134.094,94.178 134.029 C 94.425 133.964,94.162 133.914,93.592 133.916 C 93.023 133.919,92.820 133.972,93.142 134.034 M96.646 134.044 C 97.756 134.092,99.504 134.092,100.530 134.043 C 101.555 133.994,100.647 133.954,98.511 133.955 C 96.375 133.955,95.536 133.995,96.646 134.044 M134.693 135.016 C 134.696 135.586,134.749 135.788,134.811 135.466 C 134.873 135.144,134.871 134.678,134.806 134.431 C 134.741 134.183,134.690 134.447,134.693 135.016 M103.681 151.586 C 103.681 159.987,103.714 163.386,103.754 159.140 C 103.794 154.894,103.794 148.020,103.754 143.865 C 103.714 139.710,103.681 143.184,103.681 151.586 M303.755 137.864 C 303.757 138.434,303.811 138.636,303.872 138.314 C 303.934 137.992,303.932 137.526,303.867 137.279 C 303.802 137.031,303.752 137.294,303.755 137.864 M187.009 138.447 C 191.683 138.486,199.256 138.486,203.838 138.446 C 208.419 138.407,204.595 138.374,195.340 138.375 C 186.084 138.375,182.335 138.407,187.009 138.447 M323.201 142.783 C 323.202 144.207,323.246 144.757,323.298 144.004 C 323.350 143.252,323.350 142.087,323.297 141.415 C 323.244 140.744,323.201 141.359,323.201 142.783 M303.755 143.819 C 303.757 144.388,303.811 144.591,303.872 144.269 C 303.934 143.947,303.932 143.481,303.867 143.233 C 303.802 142.986,303.752 143.249,303.755 143.819 M245.796 152.233 C 245.796 154.013,245.837 154.741,245.887 153.851 C 245.938 152.961,245.938 151.505,245.887 150.615 C 245.837 149.725,245.796 150.453,245.796 152.233 M123.104 213.981 C 123.104 241.178,123.134 252.343,123.172 238.791 C 123.209 225.239,123.209 202.987,123.172 189.341 C 123.134 175.695,123.104 186.783,123.104 213.981 M115.596 214.239 C 115.596 241.294,115.626 252.324,115.663 238.750 C 115.700 225.175,115.700 203.039,115.663 189.559 C 115.626 176.078,115.596 187.184,115.596 214.239 M186.861 166.149 C 191.453 166.188,198.968 166.188,203.560 166.149 C 208.152 166.109,204.395 166.077,195.210 166.077 C 186.026 166.077,182.269 166.109,186.861 166.149 M289.304 174.822 L 288.544 175.663 289.385 174.903 C 290.169 174.194,290.346 173.981,290.146 173.981 C 290.101 173.981,289.722 174.359,289.304 174.822 M293.188 181.553 L 292.427 182.395 293.269 181.634 C 294.053 180.926,294.229 180.712,294.029 180.712 C 293.984 180.712,293.606 181.091,293.188 181.553 M16.640 194.175 C 16.640 194.816,16.691 195.078,16.752 194.757 C 16.814 194.437,16.814 193.913,16.752 193.592 C 16.691 193.272,16.640 193.534,16.640 194.175 M0.085 196.117 C 0.086 197.113,0.133 197.489,0.189 196.952 C 0.245 196.415,0.244 195.599,0.187 195.140 C 0.130 194.680,0.084 195.120,0.085 196.117 M383.252 200.000 C 383.253 200.854,383.302 201.173,383.359 200.707 C 383.417 200.242,383.416 199.543,383.357 199.154 C 383.297 198.765,383.250 199.146,383.252 200.000 M0.085 203.883 C 0.086 204.880,0.133 205.256,0.189 204.719 C 0.245 204.182,0.244 203.366,0.187 202.907 C 0.130 202.447,0.084 202.887,0.085 203.883 M16.640 205.825 C 16.640 206.466,16.691 206.728,16.752 206.408 C 16.814 206.087,16.814 205.563,16.752 205.243 C 16.691 204.922,16.640 205.184,16.640 205.825 M302.654 208.285 C 303.858 209.495,304.901 210.485,304.972 210.485 C 305.044 210.485,304.117 209.495,302.913 208.285 C 301.709 207.074,300.665 206.084,300.594 206.084 C 300.523 206.084,301.450 207.074,302.654 208.285 M305.478 211.363 C 305.686 211.614,305.770 213.620,305.756 218.030 L 305.735 224.337 307.022 226.926 C 314.092 241.150,314.007 259.680,306.805 274.091 C 305.821 276.059,305.184 277.444,305.388 277.167 C 305.716 276.726,305.761 277.432,305.761 283.006 C 305.761 287.592,305.675 289.432,305.450 289.657 C 305.279 289.828,305.211 289.968,305.298 289.968 C 305.820 289.968,310.300 283.549,312.436 279.741 C 322.902 261.080,322.093 235.261,310.493 217.735 C 308.665 214.972,305.625 211.003,305.337 211.003 C 305.250 211.003,305.314 211.165,305.478 211.363 M297.346 213.592 C 298.335 214.589,299.203 215.405,299.274 215.405 C 299.345 215.405,298.594 214.589,297.605 213.592 C 296.616 212.595,295.749 211.780,295.677 211.780 C 295.606 211.780,296.357 212.595,297.346 213.592 M241.424 215.922 C 242.125 216.634,242.757 217.217,242.828 217.217 C 242.900 217.217,242.384 216.634,241.683 215.922 C 240.982 215.210,240.350 214.628,240.278 214.628 C 240.207 214.628,240.723 215.210,241.424 215.922 M234.434 223.172 C 234.990 223.741,235.503 224.207,235.574 224.207 C 235.646 224.207,235.249 223.741,234.693 223.172 C 234.136 222.602,233.623 222.136,233.552 222.136 C 233.481 222.136,233.877 222.602,234.434 223.172 M231.197 224.806 C 231.197 224.850,231.576 225.229,232.039 225.647 L 232.880 226.408 232.120 225.566 C 231.411 224.782,231.197 224.606,231.197 224.806 M331.452 249.061 C 331.452 249.560,331.505 249.764,331.570 249.515 C 331.635 249.265,331.635 248.858,331.570 248.608 C 331.505 248.359,331.452 248.563,331.452 249.061 M300.412 252.557 C 300.413 253.696,300.459 254.130,300.514 253.521 C 300.568 252.912,300.567 251.980,300.512 251.449 C 300.456 250.919,300.411 251.417,300.412 252.557 M331.452 256.052 C 331.452 256.550,331.505 256.754,331.570 256.505 C 331.635 256.256,331.635 255.848,331.570 255.599 C 331.505 255.350,331.452 255.553,331.452 256.052 M224.838 263.366 L 224.078 264.207 224.919 263.447 C 225.382 263.028,225.761 262.650,225.761 262.605 C 225.761 262.405,225.547 262.581,224.838 263.366 M103.649 267.314 C 103.650 268.453,103.695 268.887,103.750 268.278 C 103.804 267.669,103.804 266.737,103.748 266.207 C 103.692 265.677,103.648 266.175,103.649 267.314 M115.281 270.291 C 115.281 270.932,115.331 271.194,115.393 270.874 C 115.455 270.553,115.455 270.029,115.393 269.709 C 115.331 269.388,115.281 269.650,115.281 270.291 M98.197 269.965 C 99.021 270.017,100.303 270.016,101.045 269.964 C 101.787 269.912,101.113 269.870,99.547 269.870 C 97.981 269.871,97.373 269.914,98.197 269.965 M134.693 270.680 C 134.696 271.249,134.749 271.452,134.811 271.130 C 134.873 270.808,134.871 270.342,134.806 270.094 C 134.741 269.847,134.690 270.110,134.693 270.680 M104.018 279.799 C 104.483 279.857,105.182 279.856,105.571 279.797 C 105.960 279.738,105.579 279.690,104.725 279.692 C 103.871 279.693,103.552 279.742,104.018 279.799 M92.256 280.118 C 88.154 281.096,88.026 281.698,88.026 300.065 C 88.026 317.747,88.067 318.013,91.004 319.482 L 92.298 320.129 105.243 320.141 C 112.362 320.147,114.663 320.116,110.356 320.072 L 102.524 319.993 102.524 316.373 L 102.524 312.753 131.197 312.678 L 159.871 312.604 127.767 312.581 L 95.663 312.557 95.596 299.968 L 95.529 287.379 99.027 287.379 L 102.524 287.379 102.524 283.625 L 102.524 279.871 97.799 279.897 C 95.201 279.912,92.706 280.011,92.256 280.118 M159.223 286.990 C 159.706 287.489,160.160 287.896,160.231 287.896 C 160.302 287.896,159.965 287.489,159.482 286.990 C 158.999 286.492,158.546 286.084,158.474 286.084 C 158.403 286.084,158.740 286.492,159.223 286.990 M108.544 287.039 C 108.793 287.104,109.201 287.104,109.450 287.039 C 109.699 286.974,109.495 286.921,108.997 286.921 C 108.498 286.921,108.294 286.974,108.544 287.039 M104.013 287.307 C 104.476 287.364,105.233 287.364,105.696 287.307 C 106.159 287.250,105.780 287.203,104.854 287.203 C 103.929 287.203,103.550 287.250,104.013 287.307 M76.237 302.136 C 76.237 309.896,76.270 313.071,76.311 309.191 C 76.351 305.311,76.351 298.961,76.311 295.081 C 76.270 291.201,76.237 294.375,76.237 302.136 M303.934 291.456 L 303.042 292.427 304.013 291.535 C 304.547 291.044,304.984 290.607,304.984 290.564 C 304.984 290.366,304.765 290.553,303.934 291.456 M301.100 294.498 C 300.471 295.139,300.015 295.663,300.086 295.663 C 300.158 295.663,300.730 295.139,301.359 294.498 C 301.988 293.858,302.444 293.333,302.373 293.333 C 302.302 293.333,301.729 293.858,301.100 294.498 M183.028 307.767 L 182.136 308.738 183.107 307.846 C 184.010 307.015,184.197 306.796,183.999 306.796 C 183.956 306.796,183.519 307.233,183.028 307.767 M243.474 321.424 C 243.474 324.272,243.512 325.472,243.559 324.091 C 243.605 322.711,243.605 320.381,243.559 318.913 C 243.513 317.446,243.475 318.576,243.474 321.424 M164.523 334.110 C 164.523 343.081,164.556 346.713,164.595 342.182 C 164.635 337.651,164.635 330.311,164.595 325.871 C 164.556 321.432,164.523 325.139,164.523 334.110 M218.088 320.906 C 218.089 322.330,218.132 322.880,218.185 322.127 C 218.237 321.375,218.237 320.210,218.183 319.538 C 218.130 318.867,218.087 319.482,218.088 320.906 M178.237 327.120 C 178.237 331.249,178.273 332.902,178.317 330.793 C 178.360 328.684,178.360 325.306,178.316 323.285 C 178.273 321.265,178.237 322.990,178.237 327.120 M197.652 326.472 C 197.652 329.961,197.689 331.388,197.734 329.644 C 197.779 327.900,197.779 325.045,197.734 323.301 C 197.689 321.557,197.652 322.984,197.652 326.472 M210.347 337.476 C 210.347 345.307,210.380 348.549,210.421 344.679 C 210.461 340.808,210.461 334.401,210.421 330.439 C 210.380 326.478,210.347 329.644,210.347 337.476 M229.759 332.945 C 229.759 337.146,229.794 338.864,229.838 336.764 C 229.881 334.663,229.881 331.227,229.838 329.126 C 229.794 327.026,229.759 328.744,229.759 332.945 M251.242 332.039 C 251.242 335.029,251.280 336.217,251.326 334.678 C 251.372 333.140,251.372 330.693,251.326 329.242 C 251.280 327.790,251.242 329.049,251.242 332.039 M330.994 328.091 L 329.709 329.450 331.068 328.165 C 331.816 327.458,332.427 326.847,332.427 326.806 C 332.427 326.613,332.187 326.828,330.994 328.091 M231.826 334.110 C 231.826 337.243,231.863 338.489,231.909 336.879 C 231.954 335.269,231.954 332.706,231.908 331.183 C 231.863 329.660,231.825 330.977,231.826 334.110 M327.887 331.197 L 326.602 332.557 327.961 331.272 C 328.709 330.565,329.320 329.954,329.320 329.913 C 329.320 329.719,329.081 329.934,327.887 331.197 M336.942 331.974 L 336.181 332.816 337.023 332.055 C 337.807 331.346,337.983 331.133,337.783 331.133 C 337.739 331.133,337.360 331.511,336.942 331.974 M189.888 340.194 C 189.888 344.395,189.924 346.113,189.967 344.013 C 190.011 341.913,190.011 338.476,189.967 336.375 C 189.924 334.275,189.888 335.994,189.888 340.194 M142.327 333.910 L 144.977 333.999 145.050 342.792 L 145.124 351.586 145.118 342.719 L 145.113 333.851 142.395 333.836 L 139.676 333.821 142.327 333.910 M63.167 337.152 C 64.659 338.683,65.912 339.935,65.950 339.935 C 66.137 339.935,65.821 339.603,63.236 337.083 L 60.453 334.369 63.167 337.152 M331.246 337.670 L 330.485 338.511 331.327 337.751 C 332.111 337.042,332.287 336.828,332.087 336.828 C 332.043 336.828,331.664 337.207,331.246 337.670 M243.478 344.078 C 243.478 347.566,243.514 348.994,243.559 347.249 C 243.604 345.505,243.604 342.650,243.559 340.906 C 243.514 339.162,243.478 340.589,243.478 344.078 M262.905 355.469 C 262.905 364.369,262.937 368.010,262.977 363.560 C 263.017 359.110,263.017 351.828,262.977 347.379 C 262.937 342.929,262.905 346.570,262.905 355.469 M58.511 341.359 C 59.429 342.285,60.237 343.042,60.309 343.042 C 60.380 343.042,59.688 342.285,58.770 341.359 C 57.853 340.434,57.044 339.676,56.973 339.676 C 56.902 339.676,57.594 340.434,58.511 341.359 M159.820 357.993 C 161.502 358.038,164.181 358.038,165.775 357.992 C 167.369 357.947,165.994 357.910,162.718 357.910 C 159.443 357.911,158.139 357.948,159.820 357.993 M242.913 357.993 C 244.443 358.038,246.948 358.038,248.479 357.993 C 250.010 357.947,248.757 357.909,245.696 357.909 C 242.634 357.909,241.382 357.947,242.913 357.993 M197.877 383.364 C 199.130 383.412,201.110 383.412,202.278 383.364 C 203.446 383.316,202.421 383.277,200.000 383.277 C 197.579 383.278,196.624 383.317,197.877 383.364 M198.650 399.933 C 199.474 399.984,200.756 399.984,201.498 399.932 C 202.240 399.880,201.566 399.837,200.000 399.838 C 198.434 399.839,197.826 399.881,198.650 399.933 " stroke="none" fill="#553a32" fill-rule="evenodd"/><path id="path3" d="M169.126 42.127 C 169.518 42.187,170.159 42.187,170.550 42.127 C 170.942 42.068,170.621 42.019,169.838 42.019 C 169.055 42.019,168.735 42.068,169.126 42.127 M230.211 42.135 C 232.018 42.180,235.048 42.180,236.943 42.135 C 238.838 42.091,237.359 42.055,233.657 42.055 C 229.955 42.054,228.404 42.091,230.211 42.135 M102.524 83.754 L 102.524 87.508 112.104 87.508 L 121.683 87.508 121.683 83.754 L 121.683 80.000 112.104 80.000 L 102.524 80.000 102.524 83.754 M286.548 99.417 L 286.472 104.066 288.459 105.768 C 293.503 110.088,298.040 116.753,300.722 123.781 C 307.532 141.625,303.204 160.999,289.320 174.833 L 286.602 177.541 286.602 182.104 C 286.602 184.613,286.695 186.667,286.808 186.667 C 287.243 186.667,292.533 182.251,294.692 180.086 C 298.568 176.197,301.363 172.450,304.221 167.311 L 305.761 164.543 305.761 140.645 L 305.761 116.747 305.084 115.396 C 301.412 108.072,295.509 101.237,288.361 96.032 L 286.624 94.768 286.548 99.417 M102.524 116.606 L 102.524 120.388 104.401 120.396 C 110.633 120.423,113.739 121.916,114.864 125.426 C 115.589 127.689,116.116 250.637,115.472 267.314 C 115.058 278.039,114.258 279.127,106.377 279.698 L 102.524 279.977 102.524 283.681 L 102.524 287.385 103.495 287.263 C 104.029 287.196,105.804 287.074,107.439 286.992 C 114.336 286.649,118.622 284.395,120.878 279.926 L 121.685 278.329 121.685 200.259 L 121.685 122.189 120.934 120.706 C 118.349 115.595,114.237 113.584,105.178 112.996 L 102.524 112.824 102.524 116.606 M122.779 131.780 C 122.779 132.278,122.832 132.482,122.897 132.233 C 122.962 131.984,122.962 131.576,122.897 131.327 C 122.832 131.078,122.779 131.282,122.779 131.780 M286.609 201.202 L 286.617 205.437 288.889 206.794 C 294.668 210.246,300.868 216.374,304.710 222.430 L 305.756 224.078 305.758 217.755 L 305.761 211.433 302.460 208.146 C 298.101 203.806,290.755 198.558,287.055 197.141 C 286.635 196.980,286.602 197.274,286.609 201.202 M304.489 278.599 C 301.055 284.163,293.682 291.920,287.832 296.123 L 286.602 297.007 286.602 301.510 L 286.602 306.013 288.091 305.068 C 292.976 301.969,299.052 296.808,303.220 292.219 L 305.761 289.423 305.761 283.093 C 305.761 279.612,305.729 276.764,305.691 276.764 C 305.652 276.764,305.111 277.589,304.489 278.599 M102.524 316.344 L 102.524 319.938 118.382 320.117 C 127.104 320.215,136.977 320.256,140.324 320.207 C 143.780 320.157,141.069 320.094,134.045 320.060 L 121.683 320.000 121.683 316.375 L 121.683 312.751 112.104 312.751 L 102.524 312.751 102.524 316.344 M171.845 357.993 C 173.731 358.037,176.819 358.037,178.706 357.993 C 180.592 357.949,179.049 357.912,175.275 357.912 C 171.502 357.912,169.958 357.949,171.845 357.993 M230.211 357.993 C 232.018 358.037,235.048 358.037,236.943 357.993 C 238.838 357.949,237.359 357.912,233.657 357.912 C 229.955 357.912,228.404 357.948,230.211 357.993 " stroke="none" fill="#744c3c" fill-rule="evenodd"/><path id="path4" d="M193.984 0.186 C 194.378 0.245,194.960 0.244,195.279 0.182 C 195.597 0.121,195.275 0.072,194.563 0.074 C 193.851 0.076,193.591 0.126,193.984 0.186 M204.595 0.185 C 204.987 0.245,205.628 0.245,206.019 0.185 C 206.411 0.126,206.091 0.078,205.307 0.078 C 204.524 0.078,204.204 0.126,204.595 0.185 M191.650 7.428 C 191.900 7.493,192.307 7.493,192.557 7.428 C 192.806 7.363,192.602 7.309,192.104 7.309 C 191.605 7.309,191.401 7.363,191.650 7.428 M207.317 7.432 C 207.639 7.494,208.105 7.492,208.353 7.427 C 208.600 7.362,208.337 7.312,207.767 7.314 C 207.197 7.317,206.995 7.370,207.317 7.432 M191.650 10.793 C 191.900 10.858,192.307 10.858,192.557 10.793 C 192.806 10.728,192.602 10.675,192.104 10.675 C 191.605 10.675,191.401 10.728,191.650 10.793 M198.641 16.760 C 199.317 16.813,200.424 16.813,201.100 16.760 C 201.777 16.707,201.223 16.663,199.871 16.663 C 198.518 16.663,197.964 16.707,198.641 16.760 M185.059 42.134 C 185.954 42.184,187.352 42.184,188.165 42.133 C 188.979 42.082,188.246 42.040,186.537 42.041 C 184.828 42.041,184.163 42.083,185.059 42.134 M219.108 42.135 C 220.646 42.181,223.093 42.181,224.545 42.135 C 225.997 42.089,224.738 42.051,221.748 42.051 C 218.757 42.052,217.569 42.089,219.108 42.135 M197.642 51.262 C 197.642 53.184,197.683 53.971,197.732 53.010 C 197.782 52.049,197.782 50.476,197.732 49.515 C 197.683 48.553,197.642 49.340,197.642 51.262 M341.219 58.576 C 342.292 59.719,342.524 59.925,342.524 59.730 C 342.524 59.689,341.971 59.135,341.294 58.501 L 340.065 57.346 341.219 58.576 M327.508 68.421 C 327.508 68.460,328.411 69.363,329.515 70.427 L 331.521 72.362 329.586 70.356 C 327.788 68.492,327.508 68.231,327.508 68.421 M106.084 70.097 C 113.239 70.135,124.948 70.135,132.104 70.097 C 139.259 70.059,133.405 70.027,119.094 70.027 C 104.783 70.027,98.929 70.059,106.084 70.097 M196.311 87.694 C 196.702 87.753,197.343 87.753,197.735 87.694 C 198.126 87.634,197.806 87.586,197.023 87.586 C 196.239 87.586,195.919 87.634,196.311 87.694 M76.231 102.006 C 76.231 106.207,76.267 107.926,76.310 105.825 C 76.354 103.725,76.354 100.288,76.310 98.188 C 76.267 96.087,76.231 97.806,76.231 102.006 M182.524 95.356 C 182.524 95.401,182.903 95.779,183.366 96.198 L 184.207 96.958 183.447 96.117 C 182.738 95.332,182.524 95.156,182.524 95.356 M196.055 101.416 C 196.449 101.475,197.031 101.473,197.350 101.412 C 197.668 101.351,197.346 101.302,196.634 101.304 C 195.922 101.306,195.662 101.356,196.055 101.416 M134.688 133.333 C 134.688 133.832,134.741 134.036,134.806 133.786 C 134.871 133.537,134.871 133.129,134.806 132.880 C 134.741 132.631,134.688 132.835,134.688 133.333 M178.503 152.233 C 178.503 159.851,178.536 162.968,178.576 159.159 C 178.616 155.350,178.616 149.117,178.576 145.307 C 178.536 141.498,178.503 144.615,178.503 152.233 M245.761 148.220 C 245.764 148.790,245.817 148.992,245.879 148.670 C 245.941 148.348,245.938 147.882,245.874 147.635 C 245.809 147.387,245.758 147.650,245.761 148.220 M245.756 156.117 C 245.756 156.615,245.809 156.819,245.874 156.570 C 245.939 156.320,245.939 155.913,245.874 155.663 C 245.809 155.414,245.756 155.618,245.756 156.117 M103.687 216.052 C 103.687 243.249,103.717 254.414,103.754 240.862 C 103.791 227.310,103.791 205.058,103.754 191.412 C 103.717 177.767,103.687 188.854,103.687 216.052 M175.210 176.246 C 178.379 176.287,183.563 176.287,186.731 176.246 C 189.900 176.205,187.307 176.171,180.971 176.171 C 174.634 176.171,172.042 176.205,175.210 176.246 M209.773 176.240 C 210.307 176.296,211.181 176.296,211.715 176.240 C 212.249 176.185,211.812 176.139,210.744 176.139 C 209.676 176.139,209.239 176.185,209.773 176.240 M174.822 179.611 C 178.061 179.652,183.362 179.652,186.602 179.611 C 189.841 179.570,187.191 179.537,180.712 179.537 C 174.233 179.537,171.583 179.570,174.822 179.611 M209.910 179.607 C 210.519 179.662,211.451 179.661,211.981 179.606 C 212.511 179.550,212.013 179.505,210.874 179.506 C 209.735 179.507,209.301 179.553,209.910 179.607 M392.552 185.113 C 392.552 185.612,392.605 185.816,392.670 185.566 C 392.735 185.317,392.735 184.909,392.670 184.660 C 392.605 184.411,392.552 184.615,392.552 185.113 M10.416 186.926 C 10.416 187.424,10.469 187.628,10.534 187.379 C 10.600 187.129,10.600 186.722,10.534 186.472 C 10.469 186.223,10.416 186.427,10.416 186.926 M7.050 187.702 C 7.050 188.201,7.104 188.405,7.169 188.155 C 7.234 187.906,7.234 187.498,7.169 187.249 C 7.104 187.000,7.050 187.204,7.050 187.702 M389.445 187.961 C 389.445 188.460,389.498 188.663,389.564 188.414 C 389.629 188.165,389.629 187.757,389.564 187.508 C 389.498 187.259,389.445 187.463,389.445 187.961 M392.821 188.738 C 392.821 189.379,392.872 189.641,392.934 189.320 C 392.995 189.000,392.995 188.476,392.934 188.155 C 392.872 187.835,392.821 188.097,392.821 188.738 M303.034 190.356 L 301.489 191.974 303.107 190.429 C 304.610 188.993,304.843 188.738,304.652 188.738 C 304.612 188.738,303.884 189.466,303.034 190.356 M10.175 191.327 C 10.175 192.110,10.223 192.430,10.283 192.039 C 10.342 191.647,10.342 191.006,10.283 190.615 C 10.223 190.223,10.175 190.544,10.175 191.327 M6.814 192.621 C 6.814 193.547,6.861 193.926,6.919 193.463 C 6.976 193.000,6.976 192.243,6.919 191.780 C 6.861 191.317,6.814 191.696,6.814 192.621 M382.973 192.104 C 382.973 192.602,383.026 192.806,383.091 192.557 C 383.156 192.307,383.156 191.900,383.091 191.650 C 383.026 191.401,382.973 191.605,382.973 192.104 M389.727 192.880 C 389.727 193.806,389.774 194.184,389.831 193.722 C 389.889 193.259,389.889 192.502,389.831 192.039 C 389.774 191.576,389.727 191.955,389.727 192.880 M0.065 193.528 C 0.068 194.097,0.121 194.300,0.183 193.978 C 0.245 193.656,0.243 193.189,0.178 192.942 C 0.113 192.694,0.062 192.958,0.065 193.528 M393.102 195.081 C 393.101 196.362,393.145 196.919,393.199 196.318 C 393.253 195.718,393.254 194.669,393.200 193.988 C 393.147 193.308,393.102 193.799,393.102 195.081 M16.677 200.000 C 16.678 202.706,16.716 203.777,16.763 202.381 C 16.809 200.986,16.809 198.772,16.762 197.462 C 16.715 196.153,16.677 197.294,16.677 200.000 M399.846 200.000 C 399.846 202.278,399.886 203.176,399.934 201.994 C 399.982 200.813,399.982 198.949,399.933 197.852 C 399.885 196.755,399.846 197.722,399.846 200.000 M9.939 200.518 C 9.939 202.369,9.980 203.092,10.030 202.125 C 10.080 201.158,10.080 199.644,10.030 198.759 C 9.979 197.875,9.938 198.667,9.939 200.518 M393.102 205.955 C 393.101 207.236,393.145 207.793,393.199 207.192 C 393.253 206.591,393.254 205.543,393.200 204.862 C 393.147 204.182,393.102 204.673,393.102 205.955 M0.065 206.472 C 0.068 207.042,0.121 207.245,0.183 206.923 C 0.245 206.600,0.243 206.134,0.178 205.887 C 0.113 205.639,0.062 205.903,0.065 206.472 M389.727 208.155 C 389.727 209.081,389.774 209.460,389.831 208.997 C 389.889 208.534,389.889 207.777,389.831 207.314 C 389.774 206.851,389.727 207.230,389.727 208.155 M6.814 208.414 C 6.814 209.340,6.861 209.718,6.919 209.256 C 6.976 208.793,6.976 208.036,6.919 207.573 C 6.861 207.110,6.814 207.489,6.814 208.414 M382.973 207.896 C 382.973 208.395,383.026 208.599,383.091 208.350 C 383.156 208.100,383.156 207.693,383.091 207.443 C 383.026 207.194,382.973 207.398,382.973 207.896 M10.175 209.709 C 10.175 210.492,10.223 210.812,10.283 210.421 C 10.342 210.029,10.342 209.388,10.283 208.997 C 10.223 208.605,10.175 208.926,10.175 209.709 M392.816 212.168 C 392.819 212.738,392.872 212.940,392.934 212.618 C 392.996 212.296,392.993 211.830,392.929 211.583 C 392.864 211.335,392.813 211.599,392.816 212.168 M389.450 213.204 C 389.453 213.773,389.506 213.976,389.568 213.654 C 389.630 213.332,389.628 212.866,389.563 212.618 C 389.498 212.371,389.448 212.634,389.450 213.204 M7.050 213.333 C 7.050 213.832,7.104 214.036,7.169 213.786 C 7.234 213.537,7.234 213.129,7.169 212.880 C 7.104 212.631,7.050 212.835,7.050 213.333 M10.416 214.110 C 10.416 214.608,10.469 214.812,10.534 214.563 C 10.600 214.314,10.600 213.906,10.534 213.657 C 10.469 213.408,10.416 213.612,10.416 214.110 M392.552 215.922 C 392.552 216.421,392.605 216.625,392.670 216.375 C 392.735 216.126,392.735 215.718,392.670 215.469 C 392.605 215.220,392.552 215.424,392.552 215.922 M178.501 228.414 C 178.433 228.592,178.408 237.592,178.446 248.414 L 178.515 268.091 178.578 248.222 L 178.641 228.353 196.958 228.285 L 215.275 228.217 196.950 228.154 C 182.481 228.104,178.599 228.159,178.501 228.414 M253.058 248.026 C 253.058 251.657,253.094 253.142,253.138 251.327 C 253.183 249.511,253.183 246.540,253.138 244.725 C 253.094 242.909,253.058 244.395,253.058 248.026 M93.923 269.963 C 94.532 270.018,95.464 270.017,95.994 269.962 C 96.524 269.906,96.026 269.861,94.887 269.862 C 93.748 269.863,93.314 269.909,93.923 269.963 M234.290 273.074 L 233.398 274.045 234.369 273.153 C 235.273 272.323,235.459 272.104,235.261 272.104 C 235.218 272.104,234.781 272.540,234.290 273.074 M287.241 282.783 L 285.696 284.401 287.314 282.856 C 288.204 282.006,288.932 281.278,288.932 281.238 C 288.932 281.047,288.677 281.280,287.241 282.783 M76.177 287.379 C 76.177 287.877,76.230 288.081,76.295 287.832 C 76.360 287.583,76.360 287.175,76.295 286.926 C 76.230 286.676,76.177 286.880,76.177 287.379 M180.906 291.715 C 187.207 291.754,197.518 291.754,203.819 291.715 C 210.120 291.677,204.964 291.645,192.362 291.645 C 179.761 291.645,174.605 291.677,180.906 291.715 M223.948 307.136 C 223.948 307.181,224.327 307.559,224.790 307.977 L 225.631 308.738 224.871 307.896 C 224.162 307.112,223.948 306.936,223.948 307.136 M198.786 312.686 C 200.967 312.729,204.462 312.729,206.553 312.685 C 208.645 312.642,206.861 312.607,202.589 312.607 C 198.317 312.607,196.606 312.642,198.786 312.686 M66.537 325.777 C 66.537 325.821,66.916 326.200,67.379 326.618 L 68.220 327.379 67.460 326.537 C 66.751 325.753,66.537 325.577,66.537 325.777 M104.401 333.916 C 110.916 333.954,121.576 333.954,128.091 333.916 C 134.605 333.877,129.275 333.846,116.246 333.846 C 103.217 333.846,97.887 333.877,104.401 333.916 M55.922 338.770 C 56.405 339.269,56.859 339.676,56.930 339.676 C 57.001 339.676,56.664 339.269,56.181 338.770 C 55.698 338.272,55.245 337.864,55.174 337.864 C 55.102 337.864,55.439 338.272,55.922 338.770 M61.100 343.948 C 61.583 344.447,62.037 344.854,62.108 344.854 C 62.179 344.854,61.842 344.447,61.359 343.948 C 60.876 343.450,60.423 343.042,60.351 343.042 C 60.280 343.042,60.617 343.450,61.100 343.948 M189.851 348.997 C 189.851 349.780,189.900 350.100,189.959 349.709 C 190.018 349.317,190.018 348.676,189.959 348.285 C 189.900 347.893,189.851 348.214,189.851 348.997 M145.109 361.553 L 145.113 371.650 203.883 371.651 L 262.654 371.652 203.951 371.586 L 145.249 371.520 145.176 361.488 L 145.104 351.456 145.109 361.553 M210.546 354.951 C 210.546 355.450,210.599 355.654,210.664 355.405 C 210.729 355.155,210.729 354.748,210.664 354.498 C 210.599 354.249,210.546 354.453,210.546 354.951 M185.841 357.993 C 188.022 358.036,191.517 358.036,193.608 357.993 C 195.700 357.949,193.916 357.914,189.644 357.914 C 185.372 357.914,183.661 357.950,185.841 357.993 M214.838 357.993 C 217.161 358.036,220.889 358.036,223.123 357.993 C 225.357 357.950,223.456 357.915,218.900 357.915 C 214.343 357.915,212.515 357.950,214.838 357.993 M191.650 390.340 C 191.900 390.405,192.307 390.405,192.557 390.340 C 192.806 390.275,192.602 390.222,192.104 390.222 C 191.605 390.222,191.401 390.275,191.650 390.340 M191.650 393.706 C 191.900 393.771,192.307 393.771,192.557 393.706 C 192.806 393.641,192.602 393.588,192.104 393.588 C 191.605 393.588,191.401 393.641,191.650 393.706 M207.184 393.706 C 207.434 393.771,207.841 393.771,208.091 393.706 C 208.340 393.641,208.136 393.588,207.638 393.588 C 207.139 393.588,206.935 393.641,207.184 393.706 M194.887 399.928 C 195.350 399.986,196.107 399.986,196.570 399.928 C 197.032 399.871,196.654 399.824,195.728 399.824 C 194.803 399.824,194.424 399.871,194.887 399.928 M203.435 399.929 C 203.900 399.986,204.599 399.985,204.988 399.926 C 205.377 399.867,204.997 399.820,204.142 399.821 C 203.288 399.823,202.970 399.871,203.435 399.929 " stroke="none" fill="#676662" fill-rule="evenodd"/></g></svg>