<svg width="100" height="100" xmlns="http://www.w3.org/2000/svg" xmlns:svg="http://www.w3.org/2000/svg" xmlns:se="http://svg-edit.googlecode.com">
 <metadata id="metadata27">image/svg+xml</metadata>
 <defs>
  <style type="text/css">.cls-1{fill:#413d4a}.cls-2{fill:#a09ea5}.cls-3{fill:none}</style>
  <style>.cls-1{fill:#66f;}</style>
 </defs>
 <g class="layer">
  <title>Layer 1</title>
  <g data-name="Group 9062" id="Group_9062">
   <g data-name="Group 9060" id="Group_9060">
    <path class="cls-1" d="m0,0l10,0l0,9l-10,0l0,-9z" data-name="Rectangle 4717" id="Rectangle_4717" transform="translate(45 18)"/>
    <g data-name="Group 9059" id="Group_9059">
     <path class="cls-1" d="m0,0l6,0l0,10l-6,0l0,-10z" data-name="Rectangle 4718" id="Rectangle_4718" transform="translate(14 66)"/>
     <path class="cls-1" d="m0,0l6,0l0,10l-6,0l0,-10z" data-name="Rectangle 4719" id="Rectangle_4719" transform="translate(80 66)"/>
     <path class="cls-1" d="m0,0l6,0l0,10l-6,0l0,-10z" data-name="Rectangle 4720" id="Rectangle_4720" transform="translate(47 66)"/>
    </g>
   </g>
   <g data-name="Group 9061" id="Group_9061">
    <path class="cls-2" d="m0,0l2,0l0,4l-2,0l0,-4z" data-name="Rectangle 4722" id="Rectangle_4722" transform="translate(67 40)"/>
    <circle class="cls-2" cx="1" cy="1" data-name="Ellipse 643" id="Ellipse_643" r="1" transform="translate(49 72)"/>
    <circle class="cls-2" cx="1" cy="1" data-name="Ellipse 644" id="Ellipse_644" r="1" transform="translate(82 72)"/>
    <path class="cls-2" d="m0,0l4,0l0,2l-4,0l0,-2z" data-name="Rectangle 4723" id="Rectangle_4723" transform="translate(32 58)"/>
    <path class="cls-2" d="m16,65l-3,0l0,3l-6,0l0,4l2,0l0,-2l4,0l0,7l8,0l0,-7l4,0l0,21l-16,0l0,-15l-2,0l0,17l20,0l0,-25l-6,0l0,-3l-3,0l0,-5l10,0l0,-2l-12,0l0,7zm3,2l0,8l-4,0l0,-8l4,0z" data-name="Path 19007" id="Path_19007"/>
    <circle class="cls-2" cx="1" cy="1" data-name="Ellipse 645" id="Ellipse_645" r="1" transform="translate(16 72)"/>
    <path class="cls-2" d="m87,68l0,-3l-3,0l0,-7l-33,0l0,-5l18,0l0,-5l-2,0l0,3l-34,0l0,-23l34,0l0,8l2,0l0,-8l4,0l0,-11l-13.54,0a5.994,5.994 0 1 0 -9.46,-7.31a5.995,5.995 0 1 0 -9.46,7.31l-13.54,0l0,11l4,0l0,25l18,0l0,5l-9,0l0,2l9,0l0,5l-3,0l0,3l-6,0l0,16l2,0l0,-14l4,0l0,7l8,0l0,-7l4,0l0,21l-16,0l0,-3l-2,0l0,5l20,0l0,-25l-6,0l0,-3l-3,0l0,-5l31,0l0,5l-3,0l0,3l-6,0l0,12l2,0l0,-10l4,0l0,7l8,0l0,-7l4,0l0,21l-16,0l0,-7l-2,0l0,9l20,0l0,-25l-6,0zm-16,-49l0,7l-15,0l0,-7l15,0zm-20,-6a4,4 0 1 1 4,4l-4,0l0,-4zm0,6l3,0l0,7l-8,0l0,-7l5,0zm-6,-10a4,4 0 0 1 4,4l0,4l-4,0a4,4 0 0 1 0,-8zm-16,17l0,-7l15,0l0,7l-15,0zm23,41l0,8l-4,0l0,-8l4,0zm33,8l-4,0l0,-8l4,0l0,8z" data-name="Path 19008" id="Path_19008"/>
    <g data-name="Layer 2" fill="#a09ea5" id="Layer_2" transform="matrix(0.142082 0 0 0.1125 34.9016 28.7659)">
     <g data-name="Layer 1" fill="#a09ea5" id="Layer_1-2">
      <g fill="#a09ea5" id="g24" transform="matrix(0.47225393,0,0,0.47530634,5,10.999999)">
       <path class="cls-2" d="m193.333,7.432c0.321,0.062 0.845,0.062 1.165,0c0.321,-0.062 0.059,-0.112 -0.582,-0.112c-0.641,0 -0.903,0.05 -0.583,0.112m11.91,0c0.32,0.062 0.844,0.062 1.165,0c0.32,-0.062 0.058,-0.112 -0.583,-0.112c-0.641,0 -0.903,0.05 -0.582,0.112m-92.492,20.616c-59.667,30.691 -98.736,87.878 -105.095,153.829c-7.704,79.906 34.378,155.733 106.451,191.812c2.17,1.086 3.975,1.975 4.013,1.975c0.037,0 0.028,-0.768 -0.02,-1.708c-0.087,-1.687 -0.081,-1.706 0.518,-1.518c0.333,0.104 -1.783,-1.034 -4.702,-2.53c-54.022,-27.672 -91.452,-78.648 -101.358,-138.039c-13.66,-81.899 27.182,-162.787 101.358,-200.745c2.919,-1.494 5.035,-2.63 4.702,-2.526c-0.599,0.187 -0.605,0.169 -0.518,-1.519c0.048,-0.939 0.029,-1.705 -0.042,-1.701c-0.071,0.003 -2.459,1.205 -5.307,2.67m169.666,-0.704c0.065,1.247 0.002,1.654 -0.259,1.659c-0.19,0.004 2.217,1.322 5.35,2.93c55.269,28.369 93.628,83.649 101.085,145.672c1.023,8.512 1.18,11.584 1.18,23.042c0,71.304 -39.812,136.751 -102.566,168.609c-2.871,1.458 -5.103,2.723 -4.959,2.812c0.146,0.09 0.222,0.851 0.172,1.726l-0.09,1.565l0.906,-0.378c17.131,-7.146 42.963,-26.236 58.678,-43.362c87.161,-94.987 59.376,-246.442 -55.798,-304.162c-4.123,-2.066 -3.801,-2.056 -3.699,-0.113m-118.854,14.781c0.322,0.062 0.788,0.059 1.035,-0.005c0.248,-0.065 -0.015,-0.116 -0.585,-0.113c-0.57,0.003 -0.772,0.056 -0.45,0.118m26.405,-0.001c0.32,0.062 0.844,0.062 1.165,0c0.32,-0.061 0.058,-0.112 -0.583,-0.112c-0.641,0 -0.903,0.051 -0.582,0.112m-23.42,7.518c0.967,0.05 2.482,0.05 3.366,-0.001c0.884,-0.05 0.092,-0.091 -1.759,-0.091c-1.851,0.001 -2.574,0.042 -1.607,0.092m18.511,0c0.895,0.05 2.293,0.05 3.106,-0.001c0.814,-0.051 0.081,-0.093 -1.628,-0.092c-1.709,0 -2.374,0.042 -1.478,0.093m39.36,0.002c3.606,0.04 9.431,0.04 12.945,0c3.515,-0.041 0.565,-0.074 -6.555,-0.074c-7.12,0 -9.995,0.033 -6.39,0.074m-34.292,2.524c0.001,1.424 0.044,1.974 0.097,1.221c0.052,-0.752 0.051,-1.917 -0.002,-2.589c-0.053,-0.671 -0.096,-0.056 -0.095,1.368m148.902,4.272c0.556,0.57 1.07,1.036 1.141,1.036c0.071,0 -0.326,-0.466 -0.882,-1.036c-0.556,-0.569 -1.069,-1.035 -1.141,-1.035c-0.071,0 0.326,0.466 0.882,1.035m4.401,4.401c0.557,0.57 1.07,1.036 1.141,1.036c0.071,0 -0.326,-0.466 -0.882,-1.036c-0.556,-0.569 -1.069,-1.035 -1.14,-1.035c-0.072,0 0.325,0.466 0.881,1.035m-271.08,7.573l-1.023,1.101l1.1,-1.024c1.023,-0.952 1.219,-1.177 1.024,-1.177c-0.043,0 -0.538,0.495 -1.101,1.1m-4.273,4.272l-0.893,0.971l0.971,-0.892c0.534,-0.491 0.971,-0.928 0.971,-0.971c0,-0.198 -0.219,-0.012 -1.049,0.892m53.606,11.068l0,3.754l16.569,0l16.57,0l0,-3.754l0,-3.754l-16.57,0l-16.569,0l0,3.754m131.78,2.43l0,3.841l1.25,0.148c9.292,1.1 23.51,7.054 30.473,12.76c0.595,0.487 1.156,0.886 1.248,0.886c0.093,0 0.168,-2.029 0.168,-4.509l0,-4.509l-2.959,-1.823c-8.669,-5.339 -17.477,-8.489 -29.339,-10.493l-0.841,-0.142l0,3.841m50.485,9.479c0.774,0.784 1.465,1.424 1.536,1.424c0.071,0 -0.503,-0.64 -1.277,-1.424c-0.773,-0.783 -1.464,-1.424 -1.536,-1.424c-0.071,0 0.504,0.641 1.277,1.424m-182.226,104.596c0.006,66.492 0.058,77.228 0.367,76.116c0.867,-3.123 0.923,-8.546 0.824,-78.835c-0.099,-69.756 -0.129,-72.032 -0.962,-74.105c-0.142,-0.355 -0.233,30.026 -0.229,76.824m113.747,-75.469c0.556,0.569 1.07,1.035 1.141,1.035c0.071,0 -0.326,-0.466 -0.882,-1.035c-0.556,-0.57 -1.069,-1.036 -1.141,-1.036c-0.071,0 0.326,0.466 0.882,1.036m-67.273,0.377c-3.438,1.226 -3.266,-0.206 -3.266,27.066c0,26.525 -0.136,24.787 2.079,26.392l1.095,0.792l8.634,0l8.634,0l0,-1.542l0,-1.543l-8.176,-0.076c-7.748,-0.071 -8.196,-0.101 -8.544,-0.577c-0.679,-0.93 -0.534,-46.321 0.151,-47.006c0.495,-0.495 0.863,-0.518 8.543,-0.518l8.026,0l0,-1.544l0,-1.545l2.783,-0.083c1.531,-0.046 -2.11,-0.103 -8.09,-0.127c-8.641,-0.035 -11.078,0.029 -11.869,0.311m42.484,-0.195c0.32,0.062 0.844,0.062 1.165,0c0.32,-0.061 0.058,-0.112 -0.583,-0.112c-0.641,0 -0.903,0.051 -0.582,0.112m4.725,1.877c0,1.313 -0.074,1.568 -0.454,1.579c-0.249,0.008 0.363,0.229 1.36,0.491c7.358,1.936 13.202,7.722 15.31,15.159c0.751,2.646 0.817,12.462 0.106,15.541c-1.82,7.873 -7.531,13.729 -15.546,15.938c-0.925,0.255 -1.479,0.471 -1.23,0.479c0.38,0.013 0.454,0.268 0.454,1.569c0,0.855 0.089,1.554 0.199,1.554c5.538,0 14.369,-6.874 17.652,-13.741c3.325,-6.954 3.25,-19.952 -0.153,-26.722c-3.406,-6.777 -10.046,-12.031 -16.728,-13.237l-0.97,-0.175l0,1.565m-18.965,49.396c2.314,0.043 6.1,0.043 8.414,0c2.314,-0.042 0.421,-0.078 -4.207,-0.078c-4.628,0 -6.521,0.036 -4.207,0.078m87.961,3.006c-3.704,2.878 -7.708,5.164 -15.404,8.794c-3.062,1.444 -11.249,5.946 -11.868,6.525c-0.048,0.046 2.69,0.971 6.084,2.057c12.27,3.925 17.023,5.6 20.183,7.112l3.219,1.539l-0.071,-4.145l-0.072,-4.144l-2.071,-0.923c-1.139,-0.507 -3.453,-1.414 -5.143,-2.014l-3.073,-1.092l2.296,-1.229c1.263,-0.676 3.606,-2.063 5.208,-3.081l2.913,-1.853l0,-4.596c0,-2.528 -0.029,-4.588 -0.065,-4.577c-0.035,0.01 -0.997,0.742 -2.136,1.627m-87.961,0.36c2.314,0.043 6.1,0.043 8.414,0c2.314,-0.043 0.421,-0.078 -4.207,-0.078c-4.628,0 -6.521,0.035 -4.207,0.078m114.628,22.072c0.845,0.854 1.595,1.553 1.667,1.553c0.071,0 -0.563,-0.699 -1.408,-1.553c-0.846,-0.855 -1.596,-1.554 -1.667,-1.554c-0.071,0 0.563,0.699 1.408,1.554m-142.522,13.285c-1.229,0.392 -3.006,2.224 -3.347,3.452c-0.382,1.376 -0.387,57.818 -0.005,59.192c0.974,3.51 2.05,3.807 13.706,3.771c5.339,-0.016 9.446,-0.08 9.126,-0.142c-0.518,-0.099 -0.583,-0.266 -0.583,-1.5c0,-1.233 0.065,-1.4 0.583,-1.5c0.32,-0.062 -3.704,-0.128 -8.944,-0.147l-9.526,-0.036l-0.636,-0.635l-0.635,-0.636l0,-28.721c0,-27.887 0.014,-28.738 0.494,-29.332l0.495,-0.611l9.667,-0.137c5.317,-0.076 9.405,-0.163 9.085,-0.194c-0.526,-0.052 -0.583,-0.195 -0.583,-1.463c0,-1.252 0.064,-1.419 0.583,-1.518c0.32,-0.062 -3.728,-0.117 -8.997,-0.121c-6.335,-0.006 -9.885,0.088 -10.483,0.278m52.041,2.184l0.005,1.748l1.935,0.612c7.339,2.323 13.596,9.026 16.105,17.252l0.711,2.33l0.005,8.802c0.005,8.412 -0.022,8.901 -0.596,11.004c-2.275,8.333 -8.5,15.081 -16.357,17.731l-1.683,0.567l-0.077,1.725c-0.088,1.985 -0.213,1.931 2.442,1.044c9.164,-3.061 16.351,-10.72 18.92,-20.161l0.705,-2.589l0,-9.191l0,-9.191l-0.704,-2.583c-2.615,-9.601 -10.123,-17.423 -19.504,-20.32c-0.939,-0.29 -1.753,-0.527 -1.809,-0.527c-0.056,0 -0.1,0.786 -0.098,1.747m64.155,81.222c-7.164,4.806 -18.138,8.943 -28.884,10.89l-2.395,0.434l0,3.727c0,4.397 -0.578,4.044 4.841,2.963c9.956,-1.986 17.691,-4.685 25.37,-8.853l2.928,-1.589l0,-4.365c0,-2.4 -0.03,-4.364 -0.068,-4.364c-0.037,0 -0.843,0.521 -1.792,1.157m24.764,6.416l-1.545,1.618l1.618,-1.546c1.503,-1.435 1.737,-1.69 1.546,-1.69c-0.04,0 -0.769,0.728 -1.619,1.618m-98.826,7.885c0.32,0.061 0.844,0.061 1.165,0c0.32,-0.062 0.058,-0.113 -0.583,-0.113c-0.641,0 -0.903,0.051 -0.582,0.113m-88.997,3.7l0,3.625l9.644,0c5.304,0.001 13.256,0.048 17.67,0.106c4.414,0.058 7.531,0.051 6.925,-0.015l-1.1,-0.121l0,-3.609l0,-3.61l-16.57,0l-16.569,0l0,3.624m79.044,3.819c1.824,0.044 4.736,0.044 6.473,-0.001c1.736,-0.044 0.243,-0.081 -3.317,-0.081c-3.559,0 -4.98,0.037 -3.156,0.082m-130.436,9.385c1.276,1.282 2.378,2.33 2.449,2.33c0.071,0 -0.914,-1.048 -2.19,-2.33c-1.275,-1.281 -2.377,-2.33 -2.449,-2.33c-0.071,0 0.915,1.049 2.19,2.33m270.934,11.845l-2.455,2.524l2.524,-2.454c2.345,-2.28 2.643,-2.594 2.455,-2.594c-0.038,0 -1.174,1.136 -2.524,2.524m-143.835,11.456c0,2.777 0.038,3.913 0.085,2.525c0.046,-1.389 0.046,-3.661 0,-5.049c-0.047,-1.388 -0.085,-0.252 -0.085,2.524m-40.391,0.777c0,2.349 0.039,3.311 0.087,2.136c0.048,-1.175 0.048,-3.097 0,-4.272c-0.048,-1.175 -0.087,-0.214 -0.087,2.136m13.681,-3.172c3.524,0.041 9.291,0.041 12.815,0c3.524,-0.04 0.641,-0.074 -6.408,-0.074c-7.048,0 -9.932,0.034 -6.407,0.074m53.739,0c3.606,0.041 9.431,0.041 12.945,0c3.515,-0.04 0.565,-0.074 -6.555,-0.074c-7.12,0 -9.995,0.034 -6.39,0.074m-31.086,43.225c0.321,0.062 0.845,0.062 1.165,0c0.321,-0.061 0.059,-0.112 -0.582,-0.112c-0.641,0 -0.903,0.051 -0.583,0.112m11.91,0c0.32,0.062 0.844,0.062 1.165,0c0.32,-0.061 0.058,-0.112 -0.583,-0.112c-0.641,0 -0.903,0.051 -0.582,0.112" fill="#a09ea5" fill-opacity="0" fill-rule="evenodd" id="svg_1"/>
       <path d="m188.867,0.433c-106.891,6.707 -188.652,93.194 -188.66,199.567c-0.009,110.691 88.919,199.594 199.664,199.61c126.591,0.018 220.708,-114.872 195.967,-239.222c-19.26,-96.799 -108.938,-166.105 -206.971,-159.955m27.832,7.446c100.931,9.531 176.44,91.973 176.44,192.639c0,118.1 -104.11,208.123 -221.23,191.297c-81.95,-11.773 -148.167,-76.032 -162.312,-157.511c-19.828,-114.217 62.631,-218.986 178.494,-226.787c5.148,-0.346 23.577,-0.114 28.608,0.362m-27.184,3.024c-109.866,6.199 -191.502,103.926 -177.968,213.045c13.068,105.369 110.352,179.662 215.438,164.522c101.348,-14.601 173.006,-107.113 161.729,-208.794c-2.659,-23.975 -9.841,-47.29 -21.011,-68.214c-34.943,-65.454 -104.515,-104.716 -178.188,-100.559m18.926,5.932c100.663,5.052 178.054,88.942 174.707,189.379c-3.531,105.983 -96.361,186.975 -201.918,176.17c-105.341,-10.783 -179.816,-108.767 -162.042,-213.193c15.509,-91.12 97.307,-156.971 189.253,-152.356m-48.738,15.676c-6.606,1.186 -11.638,5.651 -13.84,12.279c-0.421,1.268 -0.488,2.726 -0.611,13.333l-0.139,11.909l-27.184,0.141c-19.977,0.104 -27.473,0.223 -28.27,0.451c-6.546,1.871 -11.176,6.53 -12.768,12.848c-0.686,2.725 -0.793,33.604 -0.127,36.787c1.035,4.949 4.526,9.393 9.246,11.77c3.002,1.512 4.843,1.814 11.509,1.888c3.157,0.035 5.836,0.161 5.955,0.279c0.31,0.311 0.404,134.833 0.094,135.319c-0.205,0.321 -1.379,0.415 -6.795,0.544c-11.576,0.277 -16.807,3.474 -19.658,12.012l-0.605,1.812l-0.078,17.193c-0.088,19.428 -0.084,19.483 1.795,23.325c1.957,4.005 5.994,7.369 10.446,8.706c1.441,0.433 3.548,0.477 28.997,0.605l27.443,0.139l0.067,18.835l0.066,18.835l58.769,0l58.768,0l0.001,-13.527c0,-7.441 0.077,-16.924 0.17,-21.074l0.17,-7.546l3.317,-0.809c40.631,-9.907 67.392,-43.082 64.973,-80.547c-1.227,-19.012 -7.641,-33.534 -20.464,-46.342c-2.977,-2.973 -9.091,-8.003 -10.285,-8.461c-0.236,-0.091 0.72,-1.242 2.83,-3.407c22.877,-23.476 26.107,-58.217 7.913,-85.12c-9.468,-13.999 -26.557,-25.284 -45.43,-30.001l-2.89,-0.722l-0.109,-13.487c-0.104,-12.788 -0.138,-13.592 -0.663,-15.507c-1.678,-6.121 -6.222,-10.594 -12.478,-12.284c-2.544,-0.687 -35.191,-0.692 -37.859,-0.006c-2.39,0.615 -4.699,1.712 -6.518,3.096l-1.529,1.164l-1.577,-1.191c-1.736,-1.311 -3.866,-2.346 -6.244,-3.035c-2.115,-0.612 -33.163,-0.787 -36.408,-0.204m34.626,10.127c3.471,1.858 3.47,1.852 3.47,21.228l0,16.134l6.199,0l6.198,0l0.08,-16.764c0.112,-23.544 -2.143,-21.133 19.862,-21.239c17.114,-0.083 17.579,-0.049 19.193,1.409c1.993,1.801 1.931,1.128 1.931,20.947l0,17.621l2.33,0.316c31.811,4.305 54.12,24.716 57.488,52.597c2.764,22.871 -10.92,46.545 -33.086,57.244c-1.625,0.784 -1.697,0.711 2.023,2.029c19.454,6.889 33.543,22.111 37.994,41.05c9.277,39.473 -17.854,74.583 -63.339,81.965l-3.581,0.581l0.086,9.731c0.047,5.351 0.056,14.419 0.02,20.151l-0.064,10.42l-20.179,0l-20.178,0l-0.21,-1.23c-0.115,-0.676 -0.21,-9.181 -0.21,-18.899l0,-17.67l-6.236,0l-6.237,0l-0.171,9.363c-0.094,5.149 -0.172,13.654 -0.172,18.899l0,9.537l-20.323,0l-20.324,0l0,-18.893l0,-18.893l-32.298,-0.071l-32.297,-0.072l-1.294,-0.647c-2.937,-1.469 -2.978,-1.735 -2.978,-19.417c0,-21.189 -0.719,-19.923 11.489,-20.24c14.36,-0.374 15.113,-0.806 15.719,-9.016c0.397,-5.387 0.157,-142.31 -0.254,-144.337c-1.025,-5.059 -2.816,-5.781 -15.045,-6.062c-12.63,-0.29 -11.78,1.16 -11.78,-20.086l0,-15.793l0.648,-1.293c0.731,-1.461 2.201,-2.625 3.773,-2.99c0.581,-0.135 14.58,-0.238 32.667,-0.242l31.65,-0.006l0.003,-16.634l0.002,-16.635l0.617,-1.324c0.697,-1.497 1.943,-2.572 3.578,-3.089c2.161,-0.682 31.897,-0.396 33.236,0.32m-29.723,23.964c-0.082,18.359 -0.026,17.677 -1.58,19.319c-1.721,1.818 0.884,1.699 -35.067,1.61l-32.43,-0.08l0.067,12.65l0.067,12.65l5.049,0.046c14.121,0.13 19.279,2.807 21.54,11.176c1.318,4.877 1.395,146.006 0.084,152.144c-1.76,8.233 -6.452,10.872 -19.879,11.179l-6.928,0.158l0.067,12.552l0.067,12.552l31.89,-0.049c21.746,-0.033 32.212,0.039 32.906,0.226c1.599,0.431 2.719,1.325 3.424,2.735l0.648,1.294l0.075,16.764l0.075,16.763l12.546,0l12.546,0l0.029,-7.573c0.016,-4.165 0.104,-11.892 0.195,-17.171l0.165,-9.599l0.712,-1.076c1.467,-2.215 1.602,-2.24 12.453,-2.327c10.768,-0.087 11.244,-0.024 12.923,1.699c1.929,1.98 1.848,1.085 1.767,19.542l-0.073,16.505l12.711,0l12.711,0l0.064,-6.278c0.036,-3.453 0.065,-11.346 0.065,-17.541c0,-12.501 -0.02,-12.339 1.761,-14.197c1.228,-1.281 2.471,-1.812 5.287,-2.259c20.923,-3.319 33.507,-9.164 45.379,-21.075c26.295,-26.381 20.221,-69.169 -12.039,-84.8c-4.105,-1.99 -6.083,-2.708 -17.475,-6.345c-4.913,-1.568 -9.101,-2.913 -9.307,-2.989c-0.551,-0.202 5.823,-3.914 11.119,-6.474c11.001,-5.317 15.137,-7.926 20.265,-12.785c10.502,-9.952 16.458,-24.904 15.217,-38.202c-2.381,-25.528 -21.604,-43.111 -51.931,-47.5c-8.497,-1.23 -8.265,-0.576 -8.168,-22.985l0.073,-17.152l-12.841,0l-12.841,0l-0.002,16.763c-0.002,18.516 0.03,18.136 -1.648,19.683c-1.631,1.503 -2.459,1.612 -12.297,1.612c-9.874,0 -10.607,-0.114 -12.339,-1.913c-1.706,-1.772 -1.676,-1.413 -1.676,-19.67l0,-16.475l-12.675,0l-12.676,0l-0.075,16.893m67.256,8.867l0.017,12.169l0.701,2.289c2.464,8.052 7.629,11.939 17.776,13.378c18.116,2.568 32.042,11.173 37.913,23.426c6.925,14.453 4.164,30.081 -7.343,41.569c-4.436,4.428 -7.723,6.513 -17.663,11.202c-3.206,1.513 -34.655,19.769 -34.655,20.118c0,0.081 7.369,2.52 16.376,5.419c33.057,10.643 33.731,10.894 39.001,14.503c17.499,11.985 21.895,37.386 9.641,55.711c-8.948,13.382 -23.39,21.728 -42.703,24.678c-8.671,1.324 -12.656,3.447 -16.082,8.569c-2.825,4.224 -3.232,6.989 -2.987,20.316c0.215,11.683 0.22,11.637 -1.218,11.637l-1.038,0l0.078,-11.197c0.069,-9.973 0.028,-11.396 -0.376,-13.01c-1.592,-6.363 -6.281,-11.194 -12.605,-12.987c-2.488,-0.705 -23.038,-0.721 -25.627,-0.02c-5.633,1.525 -9.929,5.504 -11.811,10.938l-0.716,2.069l-0.184,10.615c-0.102,5.838 -0.196,11.285 -0.209,12.103l-0.025,1.489l-0.885,0l-0.886,0l-0.104,-11.586c-0.097,-10.812 -0.14,-11.718 -0.651,-13.567c-1.664,-6.026 -5.877,-10.22 -12.102,-12.046c-1.431,-0.42 -3.697,-0.463 -28.802,-0.538l-27.25,-0.082l0,-0.881c0,-0.842 0.048,-0.885 1.101,-1.011c4.506,-0.536 5.913,-0.776 7.85,-1.337c11.747,-3.404 17.432,-11.971 18.247,-27.498c0.387,-7.368 0.178,-140.078 -0.226,-144.14c-1.341,-13.451 -10.311,-22.763 -23.347,-24.238c-3.782,-0.428 -3.625,-0.368 -3.625,-1.39l0,-0.893l27.25,-0.078c25.226,-0.072 27.364,-0.112 28.797,-0.538c5.062,-1.505 8.782,-4.532 10.881,-8.854c1.692,-3.485 1.743,-3.937 1.87,-16.76l0.115,-11.586l1.013,0l1.013,0l0,11.147c0,12.609 0.082,13.36 1.853,16.992c2.349,4.818 6.911,8.258 12.328,9.294c2.84,0.543 20.074,0.52 23.261,-0.031c6.053,-1.048 10.83,-5.104 12.997,-11.037l0.694,-1.899l0.071,-12.038c0.08,-13.652 -0.012,-12.745 1.286,-12.638l0.973,0.081l0.017,12.168m-63.707,39.379c-0.284,0.06 -1.158,0.238 -1.941,0.396c-4.938,0.997 -9.555,5.551 -10.88,10.733c-0.698,2.731 -0.798,49.219 -0.111,52.132c1.23,5.216 5.249,9.404 10.616,11.06c2.628,0.811 48.057,0.724 51.766,-0.1c14.22,-3.157 24.299,-13.067 27.455,-26.998c0.654,-2.882 0.836,-14.309 0.284,-17.787c-2.332,-14.694 -13.245,-26.004 -27.978,-28.994c-1.978,-0.402 -47.453,-0.81 -49.211,-0.442m48.841,10.642c8.794,2.483 15.117,8.555 17.738,17.034c1.03,3.332 1.122,15.493 0.143,18.873c-2.538,8.763 -9.139,15.222 -17.93,17.546c-2.174,0.575 -2.353,0.579 -25.076,0.668l-22.885,0.089l-1.322,-0.652c-0.795,-0.393 -1.579,-1.034 -1.968,-1.611l-0.647,-0.959l-0.069,-23.942c-0.077,-26.834 -0.177,-25.338 1.784,-26.734c1.351,-0.962 1.818,-0.979 25.21,-0.925c22.739,0.054 23.068,0.062 25.022,0.613m-48.062,3.288l-0.649,0.648l0,22.738c0,20.16 0.045,22.802 0.403,23.312l0.403,0.576l22.315,-0.002c26.52,-0.002 26.104,0.046 31.529,-3.638c6.523,-4.43 9.298,-10.452 9.298,-20.179c0,-10.919 -3.735,-17.688 -12.003,-21.751c-4.619,-2.27 -3.329,-2.167 -28.449,-2.266l-22.199,-0.087l-0.648,0.649m43.91,9.739c6.431,1.219 9.292,5.442 9.292,13.712c0,7.273 -1.704,10.61 -6.549,12.829c-2.402,1.099 -3.785,1.172 -20.894,1.097l-16.182,-0.071l-0.067,-13.592c-0.037,-7.476 -0.012,-13.738 0.057,-13.916c0.159,-0.416 32.168,-0.472 34.343,-0.059m-45.854,66.418c-5.697,1.228 -10.493,6.047 -11.771,11.828c-0.643,2.909 -0.474,61.836 0.182,63.698c1.95,5.528 6.374,9.602 11.616,10.695c3.415,0.712 51.587,0.393 54.912,-0.363c15.694,-3.572 26.954,-14.998 30.407,-30.858c0.785,-3.603 0.71,-20.559 -0.106,-24.256c-3.637,-16.466 -16.676,-28.577 -33.123,-30.766c-4.053,-0.539 -49.601,-0.521 -52.117,0.022m51.759,10.09c11.867,1.925 21.103,10.836 23.604,22.774c0.751,3.585 0.725,16.914 -0.041,20.67c-1.991,9.771 -9.07,17.924 -18.486,21.289c-4.761,1.702 -4.368,1.681 -31.255,1.605l-24.242,-0.069l-1.102,-0.776c-0.607,-0.427 -1.374,-1.29 -1.706,-1.918l-0.602,-1.141l0,-29.315l0,-29.315l0.721,-1.38c0.584,-1.117 0.984,-1.517 2.101,-2.1l1.38,-0.721l23.595,0.001c19.919,0.001 23.974,0.063 26.033,0.396m-49.696,3.714l-0.768,0.768l0,28.519l0,28.519l0.765,0.765l0.766,0.766l24.024,-0.083c23.955,-0.083 24.03,-0.085 26.213,-0.665c10.148,-2.697 17.597,-10.943 19.183,-21.234c0.531,-3.44 0.179,-16.302 -0.514,-18.812c-2.519,-9.127 -9.384,-15.932 -18.626,-18.464l-2.491,-0.683l-23.892,-0.082l-23.892,-0.082l-0.768,0.768m47.974,9.732c5.983,1.268 10.615,5.778 11.981,11.665c0.756,3.262 0.447,14.963 -0.462,17.463c-1.389,3.823 -4.235,7.018 -7.827,8.786c-3.198,1.574 -3.105,1.568 -23.632,1.572l-18.705,0.004l0,-19.935l0,-19.935l18.446,0.004c15.019,0.004 18.773,0.074 20.199,0.376" fill="#040404" fill-rule="evenodd" id="path1"/>
       <path d="m197.735,0.193c1.174,0.048 3.097,0.048 4.271,0c1.175,-0.048 0.214,-0.088 -2.135,-0.088c-2.35,0 -3.311,0.04 -2.136,0.088m-2.589,16.564c0.462,0.057 1.22,0.057 1.682,0c0.463,-0.058 0.085,-0.105 -0.841,-0.105c-0.926,0 -1.304,0.047 -0.841,0.105m7.767,0c0.462,0.057 1.22,0.057 1.682,0c0.463,-0.058 0.085,-0.105 -0.841,-0.105c-0.926,0 -1.304,0.047 -0.841,0.105m-26.401,15.536c0.609,0.055 1.541,0.054 2.071,-0.001c0.53,-0.056 0.032,-0.101 -1.107,-0.1c-1.139,0.001 -1.573,0.047 -0.964,0.101m-10.628,9.836c0.46,0.057 1.275,0.058 1.812,0.002c0.538,-0.056 0.162,-0.103 -0.835,-0.104c-0.997,-0.001 -1.436,0.044 -0.977,0.102m8.291,0.006c1.744,0.045 4.598,0.045 6.343,0c1.744,-0.045 0.317,-0.081 -3.172,-0.081c-3.488,0 -4.916,0.036 -3.171,0.081m67.583,-0.001c0.895,0.05 2.293,0.05 3.107,-0.001c0.813,-0.051 0.08,-0.093 -1.629,-0.092c-1.708,0 -2.374,0.042 -1.478,0.093m9.496,20.908c0,8.259 0.033,11.675 0.073,7.591c0.04,-4.083 0.04,-10.841 0,-15.016c-0.04,-4.175 -0.073,-0.834 -0.073,7.425m-40.906,1.165c0,8.757 0.033,12.34 0.073,7.961c0.039,-4.378 0.039,-11.543 0,-15.922c-0.04,-4.379 -0.073,-0.796 -0.073,7.961m-65.246,-4.79c0,5.839 0.034,8.264 0.076,5.39c0.041,-2.874 0.041,-7.651 0,-10.615c-0.042,-2.964 -0.076,-0.613 -0.076,5.225m19.418,-9.644c-0.068,0.178 -0.093,7.606 -0.056,16.505l0.067,16.182l0.129,-16.505c0.071,-9.078 0.097,-16.505 0.057,-16.505c-0.04,0 -0.129,0.145 -0.197,0.323m33.14,17.541c0,7.048 0.034,9.932 0.074,6.408c0.041,-3.525 0.041,-9.292 0,-12.816c-0.04,-3.524 -0.074,-0.641 -0.074,6.408m-139.153,-8.608l-2.714,2.783l2.783,-2.714c2.585,-2.521 2.901,-2.853 2.714,-2.853c-0.038,0 -1.291,1.253 -2.783,2.784m4.66,5.177l-2.714,2.784l2.783,-2.714c1.531,-1.493 2.783,-2.745 2.783,-2.783c0,-0.187 -0.331,0.128 -2.852,2.713m267.448,-1.148c0,0.044 0.379,0.423 0.841,0.841l0.842,0.761l-0.761,-0.842c-0.708,-0.784 -0.922,-0.96 -0.922,-0.76m-100.847,0.745c-0.071,0.186 -0.098,5.116 -0.059,10.954l0.07,10.615l0.062,-10.81l0.062,-10.809l0.902,0l0.903,0l0.074,8.091l0.074,8.091l-0.006,-8.156l-0.005,-8.155l-0.973,-0.081c-0.626,-0.051 -1.02,0.041 -1.104,0.26m-51.527,10.436c0,5.838 0.034,8.263 0.076,5.389c0.041,-2.874 0.041,-7.65 0,-10.615c-0.042,-2.964 -0.076,-0.612 -0.076,5.226m147.714,-7.039c0,0.045 0.378,0.423 0.841,0.842l0.842,0.76l-0.761,-0.841c-0.709,-0.785 -0.922,-0.961 -0.922,-0.761m10.356,1.554c0,0.044 0.378,0.423 0.841,0.841l0.842,0.76l-0.761,-0.841c-0.709,-0.784 -0.922,-0.96 -0.922,-0.76m-4.919,3.883c0,0.045 0.378,0.423 0.841,0.841l0.841,0.761l-0.76,-0.842c-0.709,-0.784 -0.922,-0.96 -0.922,-0.76m-87.931,8.204c0,1.495 0.043,2.107 0.096,1.359c0.052,-0.748 0.052,-1.971 0,-2.718c-0.053,-0.748 -0.096,-0.136 -0.096,1.359m-151.002,-0.259c-1.446,0.342 -2.949,1.566 -3.656,2.979l-0.648,1.293l0,15.793c0,15.673 0.005,15.8 0.558,16.828c1.454,2.703 2.481,3.08 8.698,3.191l5.113,0.092l0,-3.777c0,-3.408 -0.044,-3.782 -0.453,-3.824c-0.249,-0.026 -1.793,-0.055 -3.43,-0.065l-2.978,-0.018l-0.067,-12.622l-0.067,-12.621l3.498,0l3.497,0l0,-3.754l0,-3.754l-4.595,0.027c-2.528,0.014 -4.989,0.119 -5.47,0.232m-16.239,10.485c0,2.136 0.041,2.976 0.089,1.866c0.049,-1.111 0.049,-2.858 0,-3.884c-0.05,-1.026 -0.089,-0.118 -0.089,2.018m75.172,-3.043c1.459,0.046 3.847,0.046 5.307,0c1.46,-0.046 0.265,-0.084 -2.654,-0.084c-2.919,0 -4.113,0.038 -2.653,0.084m50.63,0.001c2.109,0.043 5.488,0.043 7.508,0c2.021,-0.044 0.295,-0.08 -3.834,-0.08c-4.13,0 -5.783,0.036 -3.674,0.08m94.407,15.405c1.073,1.143 1.306,1.348 1.306,1.154c0,-0.042 -0.554,-0.595 -1.23,-1.23l-1.23,-1.154l1.154,1.23m-6.213,4.401c1.073,1.143 1.305,1.349 1.305,1.154c0,-0.041 -0.553,-0.595 -1.23,-1.229l-1.23,-1.155l1.155,1.23m-213.996,5.761c0,2.136 0.041,2.975 0.089,1.865c0.049,-1.11 0.049,-2.858 0,-3.884c-0.05,-1.026 -0.089,-0.117 -0.089,2.019m29.346,-0.206c0.321,0.062 0.845,0.062 1.165,0c0.321,-0.062 0.059,-0.112 -0.582,-0.112c-0.641,0 -0.903,0.05 -0.583,0.112m200.235,27.52l0.002,23.948l0.914,-1.942c6.213,-13.202 6.157,-30.638 -0.141,-44.272l-0.777,-1.683l0.002,23.949m-146.723,-21.424l-0.761,0.841l0.842,-0.76c0.462,-0.419 0.841,-0.797 0.841,-0.842c0,-0.2 -0.214,-0.024 -0.922,0.761m-53.509,1.412c0.322,0.062 0.788,0.06 1.036,-0.005c0.247,-0.065 -0.016,-0.115 -0.586,-0.112c-0.569,0.003 -0.772,0.056 -0.45,0.117m17.21,9.656c0,0.498 0.053,0.702 0.118,0.453c0.065,-0.25 0.065,-0.657 0,-0.907c-0.065,-0.249 -0.118,-0.045 -0.118,0.454m-7.491,1.035c0,0.783 0.048,1.104 0.108,0.712c0.059,-0.391 0.059,-1.032 0,-1.424c-0.06,-0.391 -0.108,-0.071 -0.108,0.712m-22.146,2.772c0.322,0.062 0.788,0.06 1.036,-0.005c0.247,-0.065 -0.016,-0.115 -0.586,-0.113c-0.569,0.003 -0.772,0.056 -0.45,0.118m3.504,0.01c1.11,0.048 2.858,0.048 3.884,-0.001c1.025,-0.049 0.117,-0.089 -2.019,-0.088c-2.136,0 -2.975,0.04 -1.865,0.089m38.047,0.972c0.003,0.57 0.056,0.772 0.118,0.45c0.062,-0.322 0.06,-0.788 -0.005,-1.035c-0.065,-0.248 -0.116,0.016 -0.113,0.585m-31.012,16.57c0,8.401 0.033,11.8 0.073,7.554c0.04,-4.246 0.04,-11.12 0,-15.275c-0.04,-4.155 -0.073,-0.681 -0.073,7.721m200.074,-13.722c0.002,0.57 0.056,0.772 0.117,0.45c0.062,-0.322 0.06,-0.788 -0.005,-1.035c-0.065,-0.248 -0.115,0.015 -0.112,0.585m-116.746,0.583c4.674,0.039 12.247,0.039 16.829,-0.001c4.581,-0.039 0.757,-0.072 -8.498,-0.071c-9.256,0 -13.005,0.032 -8.331,0.072m136.192,4.336c0.001,1.424 0.045,1.974 0.097,1.221c0.052,-0.752 0.052,-1.917 -0.001,-2.589c-0.053,-0.671 -0.096,-0.056 -0.096,1.368m-19.446,1.036c0.002,0.569 0.056,0.772 0.117,0.45c0.062,-0.322 0.06,-0.788 -0.005,-1.036c-0.065,-0.247 -0.115,0.016 -0.112,0.586m-57.959,8.414c0,1.78 0.041,2.508 0.091,1.618c0.051,-0.89 0.051,-2.346 0,-3.236c-0.05,-0.89 -0.091,-0.162 -0.091,1.618m-122.692,61.748c0,27.197 0.03,38.362 0.068,24.81c0.037,-13.552 0.037,-35.804 0,-49.45c-0.038,-13.646 -0.068,-2.558 -0.068,24.64m-7.508,0.258c0,27.055 0.03,38.085 0.067,24.511c0.037,-13.575 0.037,-35.711 0,-49.191c-0.037,-13.481 -0.067,-2.375 -0.067,24.68m71.265,-48.09c4.592,0.039 12.107,0.039 16.699,0c4.592,-0.04 0.835,-0.072 -8.35,-0.072c-9.184,0 -12.941,0.032 -8.349,0.072m102.443,8.673l-0.76,0.841l0.841,-0.76c0.784,-0.709 0.961,-0.922 0.761,-0.922c-0.045,0 -0.424,0.378 -0.842,0.841m3.884,6.731l-0.761,0.842l0.842,-0.761c0.784,-0.708 0.96,-0.922 0.76,-0.922c-0.045,0 -0.423,0.379 -0.841,0.841m-276.548,12.622c0,0.641 0.051,0.903 0.112,0.582c0.062,-0.32 0.062,-0.844 0,-1.165c-0.061,-0.32 -0.112,-0.058 -0.112,0.583m-16.555,1.942c0.001,0.996 0.048,1.372 0.104,0.835c0.056,-0.537 0.055,-1.353 -0.002,-1.812c-0.057,-0.46 -0.103,-0.02 -0.102,0.977m383.167,3.883c0.001,0.854 0.05,1.173 0.107,0.707c0.058,-0.465 0.057,-1.164 -0.002,-1.553c-0.06,-0.389 -0.107,-0.008 -0.105,0.846m-383.167,3.883c0.001,0.997 0.048,1.373 0.104,0.836c0.056,-0.537 0.055,-1.353 -0.002,-1.812c-0.057,-0.46 -0.103,-0.02 -0.102,0.976m16.555,1.942c0,0.641 0.051,0.903 0.112,0.583c0.062,-0.321 0.062,-0.845 0,-1.165c-0.061,-0.321 -0.112,-0.059 -0.112,0.582m286.014,2.46c1.204,1.21 2.247,2.2 2.318,2.2c0.072,0 -0.855,-0.99 -2.059,-2.2c-1.204,-1.211 -2.248,-2.201 -2.319,-2.201c-0.071,0 0.856,0.99 2.06,2.201m2.824,3.078c0.208,0.251 0.292,2.257 0.278,6.667l-0.021,6.307l1.287,2.589c7.07,14.224 6.985,32.754 -0.217,47.165c-0.984,1.968 -1.621,3.353 -1.417,3.076c0.328,-0.441 0.373,0.265 0.373,5.839c0,4.586 -0.086,6.426 -0.311,6.651c-0.171,0.171 -0.239,0.311 -0.152,0.311c0.522,0 5.002,-6.419 7.138,-10.227c10.466,-18.661 9.657,-44.48 -1.943,-62.006c-1.828,-2.763 -4.868,-6.732 -5.156,-6.732c-0.087,0 -0.023,0.162 0.141,0.36m-8.132,2.229c0.989,0.997 1.857,1.813 1.928,1.813c0.071,0 -0.68,-0.816 -1.669,-1.813c-0.989,-0.997 -1.856,-1.812 -1.928,-1.812c-0.071,0 0.68,0.815 1.669,1.812m-55.922,2.33c0.701,0.712 1.333,1.295 1.404,1.295c0.072,0 -0.444,-0.583 -1.145,-1.295c-0.701,-0.712 -1.333,-1.294 -1.405,-1.294c-0.071,0 0.445,0.582 1.146,1.294m-6.99,7.25c0.556,0.569 1.069,1.035 1.14,1.035c0.072,0 -0.325,-0.466 -0.881,-1.035c-0.557,-0.57 -1.07,-1.036 -1.141,-1.036c-0.071,0 0.325,0.466 0.882,1.036m-3.237,1.634c0,0.044 0.379,0.423 0.842,0.841l0.841,0.761l-0.76,-0.842c-0.709,-0.784 -0.923,-0.96 -0.923,-0.76m100.255,24.255c0,0.499 0.053,0.703 0.118,0.454c0.065,-0.25 0.065,-0.657 0,-0.907c-0.065,-0.249 -0.118,-0.045 -0.118,0.453m-31.04,3.496c0.001,1.139 0.047,1.573 0.102,0.964c0.054,-0.609 0.053,-1.541 -0.002,-2.072c-0.056,-0.53 -0.101,-0.032 -0.1,1.108m31.04,3.495c0,0.498 0.053,0.702 0.118,0.453c0.065,-0.249 0.065,-0.657 0,-0.906c-0.065,-0.249 -0.118,-0.046 -0.118,0.453m-106.614,7.314l-0.76,0.841l0.841,-0.76c0.463,-0.419 0.842,-0.797 0.842,-0.842c0,-0.2 -0.214,-0.024 -0.923,0.761m-121.189,3.948c0.001,1.139 0.046,1.573 0.101,0.964c0.054,-0.609 0.054,-1.541 -0.002,-2.071c-0.056,-0.53 -0.1,-0.032 -0.099,1.107m11.632,2.977c0,0.641 0.05,0.903 0.112,0.583c0.062,-0.321 0.062,-0.845 0,-1.165c-0.062,-0.321 -0.112,-0.059 -0.112,0.582m-17.084,-0.326c0.824,0.052 2.106,0.051 2.848,-0.001c0.742,-0.052 0.068,-0.094 -1.498,-0.094c-1.566,0.001 -2.174,0.044 -1.35,0.095m36.496,0.715c0.003,0.569 0.056,0.772 0.118,0.45c0.062,-0.322 0.06,-0.788 -0.005,-1.036c-0.065,-0.247 -0.116,0.016 -0.113,0.586m-30.675,9.119c0.465,0.058 1.164,0.057 1.553,-0.002c0.389,-0.059 0.008,-0.107 -0.846,-0.105c-0.854,0.001 -1.173,0.05 -0.707,0.107m-11.762,0.319c-4.102,0.978 -4.23,1.58 -4.23,19.947c0,17.682 0.041,17.948 2.978,19.417l1.294,0.647l12.945,0.012c7.119,0.006 9.42,-0.025 5.113,-0.069l-7.832,-0.079l0,-3.62l0,-3.62l28.673,-0.075l28.674,-0.074l-32.104,-0.023l-32.104,-0.024l-0.067,-12.589l-0.067,-12.589l3.498,0l3.497,0l0,-3.754l0,-3.754l-4.725,0.026c-2.598,0.015 -5.093,0.114 -5.543,0.221m66.967,6.872c0.483,0.499 0.937,0.906 1.008,0.906c0.071,0 -0.266,-0.407 -0.749,-0.906c-0.483,-0.498 -0.936,-0.906 -1.008,-0.906c-0.071,0 0.266,0.408 0.749,0.906m-50.679,0.049c0.249,0.065 0.657,0.065 0.906,0c0.249,-0.065 0.045,-0.118 -0.453,-0.118c-0.499,0 -0.703,0.053 -0.453,0.118m-4.531,0.268c0.463,0.057 1.22,0.057 1.683,0c0.463,-0.057 0.084,-0.104 -0.842,-0.104c-0.925,0 -1.304,0.047 -0.841,0.104m-27.776,14.829c0,7.76 0.033,10.935 0.074,7.055c0.04,-3.88 0.04,-10.23 0,-14.11c-0.041,-3.88 -0.074,-0.706 -0.074,7.055m227.697,-10.68l-0.892,0.971l0.971,-0.892c0.534,-0.491 0.971,-0.928 0.971,-0.971c0,-0.198 -0.219,-0.011 -1.05,0.892m-2.834,3.042c-0.629,0.641 -1.085,1.165 -1.014,1.165c0.072,0 0.644,-0.524 1.273,-1.165c0.629,-0.64 1.085,-1.165 1.014,-1.165c-0.071,0 -0.644,0.525 -1.273,1.165m-118.072,13.269l-0.892,0.971l0.971,-0.892c0.903,-0.831 1.09,-1.05 0.892,-1.05c-0.043,0 -0.48,0.437 -0.971,0.971m60.446,13.657c0,2.848 0.038,4.048 0.085,2.667c0.046,-1.38 0.046,-3.71 0,-5.178c-0.046,-1.467 -0.084,-0.337 -0.085,2.511m-78.951,12.686c0,8.971 0.033,12.603 0.072,8.072c0.04,-4.531 0.04,-11.871 0,-16.311c-0.039,-4.439 -0.072,-0.732 -0.072,8.239m53.565,-13.204c0.001,1.424 0.044,1.974 0.097,1.221c0.052,-0.752 0.052,-1.917 -0.002,-2.589c-0.053,-0.671 -0.096,-0.056 -0.095,1.368m-39.851,6.214c0,4.129 0.036,5.782 0.08,3.673c0.043,-2.109 0.043,-5.487 -0.001,-7.508c-0.043,-2.02 -0.079,-0.295 -0.079,3.835m19.415,-0.648c0,3.489 0.037,4.916 0.082,3.172c0.045,-1.744 0.045,-4.599 0,-6.343c-0.045,-1.744 -0.082,-0.317 -0.082,3.171m12.695,11.004c0,7.831 0.033,11.073 0.074,7.203c0.04,-3.871 0.04,-10.278 0,-14.24c-0.041,-3.961 -0.074,-0.795 -0.074,7.037m19.412,-4.531c0,4.201 0.035,5.919 0.079,3.819c0.043,-2.101 0.043,-5.537 0,-7.638c-0.044,-2.1 -0.079,-0.382 -0.079,3.819m21.483,-0.906c0,2.99 0.038,4.178 0.084,2.639c0.046,-1.538 0.046,-3.985 0,-5.436c-0.046,-1.452 -0.084,-0.193 -0.084,2.797m79.752,-3.948l-1.285,1.359l1.359,-1.285c0.748,-0.707 1.359,-1.318 1.359,-1.359c0,-0.193 -0.24,0.022 -1.433,1.285m-99.168,6.019c0,3.133 0.037,4.379 0.083,2.769c0.045,-1.61 0.045,-4.173 -0.001,-5.696c-0.045,-1.523 -0.083,-0.206 -0.082,2.927m96.061,-2.913l-1.285,1.36l1.359,-1.285c0.748,-0.707 1.359,-1.318 1.359,-1.359c0,-0.194 -0.239,0.021 -1.433,1.284m9.055,0.777l-0.761,0.842l0.842,-0.761c0.784,-0.709 0.96,-0.922 0.76,-0.922c-0.044,0 -0.423,0.378 -0.841,0.841m-147.054,8.22c0,4.201 0.036,5.919 0.079,3.819c0.044,-2.1 0.044,-5.537 0,-7.638c-0.043,-2.1 -0.079,-0.381 -0.079,3.819m-47.561,-6.284l2.65,0.089l0.073,8.793l0.074,8.794l-0.006,-8.867l-0.005,-8.868l-2.718,-0.015l-2.719,-0.015l2.651,0.089m-79.16,3.242c1.492,1.531 2.745,2.783 2.783,2.783c0.187,0 -0.129,-0.332 -2.714,-2.852l-2.783,-2.714l2.714,2.783m268.079,0.518l-0.761,0.841l0.842,-0.76c0.784,-0.709 0.96,-0.923 0.76,-0.923c-0.044,0 -0.423,0.379 -0.841,0.842m-87.768,6.408c0,3.488 0.036,4.916 0.081,3.171c0.045,-1.744 0.045,-4.599 0,-6.343c-0.045,-1.744 -0.081,-0.317 -0.081,3.172m19.427,11.391c0,8.9 0.032,12.541 0.072,8.091c0.04,-4.45 0.04,-11.732 0,-16.181c-0.04,-4.45 -0.072,-0.809 -0.072,8.09m-204.394,-14.11c0.918,0.926 1.726,1.683 1.798,1.683c0.071,0 -0.621,-0.757 -1.539,-1.683c-0.917,-0.925 -1.726,-1.683 -1.797,-1.683c-0.071,0 0.621,0.758 1.538,1.683m101.309,16.634c1.682,0.045 4.361,0.045 5.955,-0.001c1.594,-0.045 0.219,-0.082 -3.057,-0.082c-3.275,0.001 -4.579,0.038 -2.898,0.083m83.093,0c1.53,0.045 4.035,0.045 5.566,0c1.531,-0.046 0.278,-0.084 -2.783,-0.084c-3.062,0 -4.314,0.038 -2.783,0.084m-45.036,25.371c1.253,0.048 3.233,0.048 4.401,0c1.168,-0.048 0.143,-0.087 -2.278,-0.087c-2.421,0.001 -3.376,0.04 -2.123,0.087m0.773,16.569c0.824,0.051 2.106,0.051 2.848,-0.001c0.742,-0.052 0.068,-0.095 -1.498,-0.094c-1.566,0.001 -2.174,0.043 -1.35,0.095" fill="#553a32" fill-rule="evenodd" id="path2"/>
       <path d="m169.126,42.127c0.392,0.06 1.033,0.06 1.424,0c0.392,-0.059 0.071,-0.108 -0.712,-0.108c-0.783,0 -1.103,0.049 -0.712,0.108m61.085,0.008c1.807,0.045 4.837,0.045 6.732,0c1.895,-0.044 0.416,-0.08 -3.286,-0.08c-3.702,-0.001 -5.253,0.036 -3.446,0.08m-127.687,41.619l0,3.754l9.58,0l9.579,0l0,-3.754l0,-3.754l-9.579,0l-9.58,0l0,3.754m184.024,15.663l-0.076,4.649l1.987,1.702c5.044,4.32 9.581,10.985 12.263,18.013c6.81,17.844 2.482,37.218 -11.402,51.052l-2.718,2.708l0,4.563c0,2.509 0.093,4.563 0.206,4.563c0.435,0 5.725,-4.416 7.884,-6.581c3.876,-3.889 6.671,-7.636 9.529,-12.775l1.54,-2.768l0,-23.898l0,-23.898l-0.677,-1.351c-3.672,-7.324 -9.575,-14.159 -16.723,-19.364l-1.737,-1.264l-0.076,4.649m-184.024,17.189l0,3.782l1.877,0.008c6.232,0.027 9.338,1.52 10.463,5.03c0.725,2.263 1.252,125.211 0.608,141.888c-0.414,10.725 -1.214,11.813 -9.095,12.384l-3.853,0.279l0,3.704l0,3.704l0.971,-0.122c0.534,-0.067 2.309,-0.189 3.944,-0.271c6.897,-0.343 11.183,-2.597 13.439,-7.066l0.807,-1.597l0,-78.07l0,-78.07l-0.751,-1.483c-2.585,-5.111 -6.697,-7.122 -15.756,-7.71l-2.654,-0.172l0,3.782m20.255,15.174c0,0.498 0.053,0.702 0.118,0.453c0.065,-0.249 0.065,-0.657 0,-0.906c-0.065,-0.249 -0.118,-0.045 -0.118,0.453m163.83,69.422l0.008,4.235l2.272,1.357c5.779,3.452 11.979,9.58 15.821,15.636l1.046,1.648l0.002,-6.323l0.003,-6.322l-3.301,-3.287c-4.359,-4.34 -11.705,-9.588 -15.405,-11.005c-0.42,-0.161 -0.453,0.133 -0.446,4.061m17.88,77.397c-3.434,5.564 -10.807,13.321 -16.657,17.524l-1.23,0.884l0,4.503l0,4.503l1.489,-0.945c4.885,-3.099 10.961,-8.26 15.129,-12.849l2.541,-2.796l0,-6.33c0,-3.481 -0.032,-6.329 -0.07,-6.329c-0.039,0 -0.58,0.825 -1.202,1.835m-201.965,37.745l0,3.594l15.858,0.179c8.722,0.098 18.595,0.139 21.942,0.09c3.456,-0.05 0.745,-0.113 -6.279,-0.147l-12.362,-0.06l0,-3.625l0,-3.624l-9.579,0l-9.58,0l0,3.593m69.321,41.649c1.886,0.044 4.974,0.044 6.861,0c1.886,-0.044 0.343,-0.081 -3.431,-0.081c-3.773,0 -5.317,0.037 -3.43,0.081m58.366,0c1.807,0.044 4.837,0.044 6.732,0c1.895,-0.044 0.416,-0.081 -3.286,-0.081c-3.702,0 -5.253,0.036 -3.446,0.081" fill="#744c3c" fill-rule="evenodd" id="path3"/>
       <path d="m193.984,0.186c0.394,0.059 0.976,0.058 1.295,-0.004c0.318,-0.061 -0.004,-0.11 -0.716,-0.108c-0.712,0.002 -0.972,0.052 -0.579,0.112m10.611,-0.001c0.392,0.06 1.033,0.06 1.424,0c0.392,-0.059 0.072,-0.107 -0.712,-0.107c-0.783,0 -1.103,0.048 -0.712,0.107m-12.945,7.243c0.25,0.065 0.657,0.065 0.907,0c0.249,-0.065 0.045,-0.119 -0.453,-0.119c-0.499,0 -0.703,0.054 -0.454,0.119m15.667,0.004c0.322,0.062 0.788,0.06 1.036,-0.005c0.247,-0.065 -0.016,-0.115 -0.586,-0.113c-0.57,0.003 -0.772,0.056 -0.45,0.118m-15.667,3.361c0.25,0.065 0.657,0.065 0.907,0c0.249,-0.065 0.045,-0.118 -0.453,-0.118c-0.499,0 -0.703,0.053 -0.454,0.118m6.991,5.967c0.676,0.053 1.783,0.053 2.459,0c0.677,-0.053 0.123,-0.097 -1.229,-0.097c-1.353,0 -1.907,0.044 -1.23,0.097m-13.582,25.374c0.895,0.05 2.293,0.05 3.106,-0.001c0.814,-0.051 0.081,-0.093 -1.628,-0.092c-1.709,0 -2.374,0.042 -1.478,0.093m34.049,0.001c1.538,0.046 3.985,0.046 5.437,0c1.452,-0.046 0.193,-0.084 -2.797,-0.084c-2.991,0.001 -4.179,0.038 -2.64,0.084m-21.466,9.127c0,1.922 0.041,2.709 0.09,1.748c0.05,-0.961 0.05,-2.534 0,-3.495c-0.049,-0.962 -0.09,-0.175 -0.09,1.747m143.577,7.314c1.073,1.143 1.305,1.349 1.305,1.154c0,-0.041 -0.553,-0.595 -1.23,-1.229l-1.229,-1.155l1.154,1.23m-13.711,9.845c0,0.039 0.903,0.942 2.007,2.006l2.006,1.935l-1.935,-2.006c-1.798,-1.864 -2.078,-2.125 -2.078,-1.935m-221.424,1.676c7.155,0.038 18.864,0.038 26.02,0c7.155,-0.038 1.301,-0.07 -13.01,-0.07c-14.311,0 -20.165,0.032 -13.01,0.07m90.227,17.597c0.391,0.059 1.032,0.059 1.424,0c0.391,-0.06 0.071,-0.108 -0.712,-0.108c-0.784,0 -1.104,0.048 -0.712,0.108m-120.08,14.312c0,4.201 0.036,5.92 0.079,3.819c0.044,-2.1 0.044,-5.537 0,-7.637c-0.043,-2.101 -0.079,-0.382 -0.079,3.818m106.293,-6.65c0,0.045 0.379,0.423 0.842,0.842l0.841,0.76l-0.76,-0.841c-0.709,-0.785 -0.923,-0.961 -0.923,-0.761m13.531,6.06c0.394,0.059 0.976,0.057 1.295,-0.004c0.318,-0.061 -0.004,-0.11 -0.716,-0.108c-0.712,0.002 -0.972,0.052 -0.579,0.112m-61.367,31.917c0,0.499 0.053,0.703 0.118,0.453c0.065,-0.249 0.065,-0.657 0,-0.906c-0.065,-0.249 -0.118,-0.045 -0.118,0.453m43.815,18.9c0,7.618 0.033,10.735 0.073,6.926c0.04,-3.809 0.04,-10.042 0,-13.852c-0.04,-3.809 -0.073,-0.692 -0.073,6.926m67.258,-4.013c0.003,0.57 0.056,0.772 0.118,0.45c0.062,-0.322 0.059,-0.788 -0.005,-1.035c-0.065,-0.248 -0.116,0.015 -0.113,0.585m-0.005,7.897c0,0.498 0.053,0.702 0.118,0.453c0.065,-0.25 0.065,-0.657 0,-0.907c-0.065,-0.249 -0.118,-0.045 -0.118,0.454m-142.069,59.935c0,27.197 0.03,38.362 0.067,24.81c0.037,-13.552 0.037,-35.804 0,-49.45c-0.037,-13.645 -0.067,-2.558 -0.067,24.64m71.523,-39.806c3.169,0.041 8.353,0.041 11.521,0c3.169,-0.041 0.576,-0.075 -5.76,-0.075c-6.337,0 -8.929,0.034 -5.761,0.075m34.563,-0.006c0.534,0.056 1.408,0.056 1.942,0c0.534,-0.055 0.097,-0.101 -0.971,-0.101c-1.068,0 -1.505,0.046 -0.971,0.101m-34.951,3.371c3.239,0.041 8.54,0.041 11.78,0c3.239,-0.041 0.589,-0.074 -5.89,-0.074c-6.479,0 -9.129,0.033 -5.89,0.074m35.088,-0.004c0.609,0.055 1.541,0.054 2.071,-0.001c0.53,-0.056 0.032,-0.101 -1.107,-0.1c-1.139,0.001 -1.573,0.047 -0.964,0.101m182.642,5.506c0,0.499 0.053,0.703 0.118,0.453c0.065,-0.249 0.065,-0.657 0,-0.906c-0.065,-0.249 -0.118,-0.045 -0.118,0.453m-382.136,1.813c0,0.498 0.053,0.702 0.118,0.453c0.066,-0.25 0.066,-0.657 0,-0.907c-0.065,-0.249 -0.118,-0.045 -0.118,0.454m-3.366,0.776c0,0.499 0.054,0.703 0.119,0.453c0.065,-0.249 0.065,-0.657 0,-0.906c-0.065,-0.249 -0.119,-0.045 -0.119,0.453m382.395,0.259c0,0.499 0.053,0.702 0.119,0.453c0.065,-0.249 0.065,-0.657 0,-0.906c-0.066,-0.249 -0.119,-0.045 -0.119,0.453m3.376,0.777c0,0.641 0.051,0.903 0.113,0.582c0.061,-0.32 0.061,-0.844 0,-1.165c-0.062,-0.32 -0.113,-0.058 -0.113,0.583m-89.787,1.618l-1.545,1.618l1.618,-1.545c1.503,-1.436 1.736,-1.691 1.545,-1.691c-0.04,0 -0.768,0.728 -1.618,1.618m-292.859,0.971c0,0.783 0.048,1.103 0.108,0.712c0.059,-0.392 0.059,-1.033 0,-1.424c-0.06,-0.392 -0.108,-0.071 -0.108,0.712m-3.361,1.294c0,0.926 0.047,1.305 0.105,0.842c0.057,-0.463 0.057,-1.22 0,-1.683c-0.058,-0.463 -0.105,-0.084 -0.105,0.841m376.159,-0.517c0,0.498 0.053,0.702 0.118,0.453c0.065,-0.25 0.065,-0.657 0,-0.907c-0.065,-0.249 -0.118,-0.045 -0.118,0.454m6.754,0.776c0,0.926 0.047,1.304 0.104,0.842c0.058,-0.463 0.058,-1.22 0,-1.683c-0.057,-0.463 -0.104,-0.084 -0.104,0.841m-389.662,0.648c0.003,0.569 0.056,0.772 0.118,0.45c0.062,-0.322 0.06,-0.789 -0.005,-1.036c-0.065,-0.248 -0.116,0.016 -0.113,0.586m393.037,1.553c-0.001,1.281 0.043,1.838 0.097,1.237c0.054,-0.6 0.055,-1.649 0.001,-2.33c-0.053,-0.68 -0.098,-0.189 -0.098,1.093m-376.425,4.919c0.001,2.706 0.039,3.777 0.086,2.381c0.046,-1.395 0.046,-3.609 -0.001,-4.919c-0.047,-1.309 -0.085,-0.168 -0.085,2.538m383.169,0c0,2.278 0.04,3.176 0.088,1.994c0.048,-1.181 0.048,-3.045 -0.001,-4.142c-0.048,-1.097 -0.087,-0.13 -0.087,2.148m-389.907,0.518c0,1.851 0.041,2.574 0.091,1.607c0.05,-0.967 0.05,-2.481 0,-3.366c-0.051,-0.884 -0.092,-0.092 -0.091,1.759m383.163,5.437c-0.001,1.281 0.043,1.838 0.097,1.237c0.054,-0.601 0.055,-1.649 0.001,-2.33c-0.053,-0.68 -0.098,-0.189 -0.098,1.093m-393.037,0.517c0.003,0.57 0.056,0.773 0.118,0.451c0.062,-0.323 0.06,-0.789 -0.005,-1.036c-0.065,-0.248 -0.116,0.016 -0.113,0.585m389.662,1.683c0,0.926 0.047,1.305 0.104,0.842c0.058,-0.463 0.058,-1.22 0,-1.683c-0.057,-0.463 -0.104,-0.084 -0.104,0.841m-382.913,0.259c0,0.926 0.047,1.304 0.105,0.842c0.057,-0.463 0.057,-1.22 0,-1.683c-0.058,-0.463 -0.105,-0.084 -0.105,0.841m376.159,-0.518c0,0.499 0.053,0.703 0.118,0.454c0.065,-0.25 0.065,-0.657 0,-0.907c-0.065,-0.249 -0.118,-0.045 -0.118,0.453m-372.798,1.813c0,0.783 0.048,1.103 0.108,0.712c0.059,-0.392 0.059,-1.033 0,-1.424c-0.06,-0.392 -0.108,-0.071 -0.108,0.712m382.641,2.459c0.003,0.57 0.056,0.772 0.118,0.45c0.062,-0.322 0.059,-0.788 -0.005,-1.035c-0.065,-0.248 -0.116,0.016 -0.113,0.585m-3.366,1.036c0.003,0.569 0.056,0.772 0.118,0.45c0.062,-0.322 0.06,-0.788 -0.005,-1.036c-0.065,-0.247 -0.115,0.016 -0.113,0.586m-382.4,0.129c0,0.499 0.054,0.703 0.119,0.453c0.065,-0.249 0.065,-0.657 0,-0.906c-0.065,-0.249 -0.119,-0.045 -0.119,0.453m3.366,0.777c0,0.498 0.053,0.702 0.118,0.453c0.066,-0.249 0.066,-0.657 0,-0.906c-0.065,-0.249 -0.118,-0.045 -0.118,0.453m382.136,1.812c0,0.499 0.053,0.703 0.118,0.453c0.065,-0.249 0.065,-0.657 0,-0.906c-0.065,-0.249 -0.118,-0.045 -0.118,0.453m-214.051,12.492c-0.068,0.178 -0.093,9.178 -0.055,20l0.069,19.677l0.063,-19.869l0.063,-19.869l18.317,-0.068l18.317,-0.068l-18.325,-0.063c-14.469,-0.05 -18.351,0.005 -18.449,0.26m74.557,19.612c0,3.631 0.036,5.116 0.08,3.301c0.045,-1.816 0.045,-4.787 0,-6.602c-0.044,-1.816 -0.08,-0.33 -0.08,3.301m-159.135,21.937c0.609,0.055 1.541,0.054 2.071,-0.001c0.53,-0.056 0.032,-0.101 -1.107,-0.1c-1.139,0.001 -1.573,0.047 -0.964,0.101m140.367,3.111l-0.892,0.971l0.971,-0.892c0.904,-0.83 1.09,-1.049 0.892,-1.049c-0.043,0 -0.48,0.436 -0.971,0.97m52.951,9.709l-1.545,1.618l1.618,-1.545c0.89,-0.85 1.618,-1.578 1.618,-1.618c0,-0.191 -0.255,0.042 -1.691,1.545m-211.064,4.596c0,0.498 0.053,0.702 0.118,0.453c0.065,-0.249 0.065,-0.657 0,-0.906c-0.065,-0.25 -0.118,-0.046 -0.118,0.453m104.729,4.336c6.301,0.039 16.612,0.039 22.913,0c6.301,-0.038 1.145,-0.07 -11.457,-0.07c-12.601,0 -17.757,0.032 -11.456,0.07m43.042,15.421c0,0.045 0.379,0.423 0.842,0.841l0.841,0.761l-0.76,-0.842c-0.709,-0.784 -0.923,-0.96 -0.923,-0.76m-25.162,5.55c2.181,0.043 5.676,0.043 7.767,-0.001c2.092,-0.043 0.308,-0.078 -3.964,-0.078c-4.272,0 -5.983,0.035 -3.803,0.079m-132.249,13.091c0,0.044 0.379,0.423 0.842,0.841l0.841,0.761l-0.76,-0.842c-0.709,-0.784 -0.923,-0.96 -0.923,-0.76m37.864,8.139c6.515,0.038 17.175,0.038 23.69,0c6.514,-0.039 1.184,-0.07 -11.845,-0.07c-13.029,0 -18.359,0.031 -11.845,0.07m-48.479,4.854c0.483,0.499 0.937,0.906 1.008,0.906c0.071,0 -0.266,-0.407 -0.749,-0.906c-0.483,-0.498 -0.936,-0.906 -1.007,-0.906c-0.072,0 0.265,0.408 0.748,0.906m5.178,5.178c0.483,0.499 0.937,0.906 1.008,0.906c0.071,0 -0.266,-0.407 -0.749,-0.906c-0.483,-0.498 -0.936,-0.906 -1.008,-0.906c-0.071,0 0.266,0.408 0.749,0.906m128.751,5.049c0,0.783 0.049,1.103 0.108,0.712c0.059,-0.392 0.059,-1.033 0,-1.424c-0.059,-0.392 -0.108,-0.071 -0.108,0.712m-44.742,12.556l0.004,10.097l58.77,0.001l58.771,0.001l-58.703,-0.066l-58.702,-0.066l-0.073,-10.032l-0.072,-10.032l0.005,10.097m65.437,-6.602c0,0.499 0.053,0.703 0.118,0.454c0.065,-0.25 0.065,-0.657 0,-0.907c-0.065,-0.249 -0.118,-0.045 -0.118,0.453m-24.705,3.042c2.181,0.043 5.676,0.043 7.767,0c2.092,-0.044 0.308,-0.079 -3.964,-0.079c-4.272,0 -5.983,0.036 -3.803,0.079m28.997,0c2.323,0.043 6.051,0.043 8.285,0c2.234,-0.043 0.333,-0.078 -4.223,-0.078c-4.557,0 -6.385,0.035 -4.062,0.078m-23.188,32.347c0.25,0.065 0.657,0.065 0.907,0c0.249,-0.065 0.045,-0.118 -0.453,-0.118c-0.499,0 -0.703,0.053 -0.454,0.118m0,3.366c0.25,0.065 0.657,0.065 0.907,0c0.249,-0.065 0.045,-0.118 -0.453,-0.118c-0.499,0 -0.703,0.053 -0.454,0.118m15.534,0c0.25,0.065 0.657,0.065 0.907,0c0.249,-0.065 0.045,-0.118 -0.453,-0.118c-0.499,0 -0.703,0.053 -0.454,0.118m-12.297,6.222c0.463,0.058 1.22,0.058 1.683,0c0.462,-0.057 0.084,-0.104 -0.842,-0.104c-0.925,0 -1.304,0.047 -0.841,0.104m8.548,0.001c0.465,0.057 1.164,0.056 1.553,-0.003c0.389,-0.059 0.009,-0.106 -0.846,-0.105c-0.854,0.002 -1.172,0.05 -0.707,0.108" id="path4"/>
      </g>
     </g>
    </g>
   </g>
  </g>
 </g>
</svg>